<?xml version="1.0" encoding="UTF-8"?>
<svg id="Layer_1" xmlns="http://www.w3.org/2000/svg" version="1.1" viewBox="0 0 477.28 133.89">
  <!-- Generator: Adobe Illustrator 30.0.0, SVG Export Plug-In . SVG Version: 2.1.1 Build 123)  -->
  <defs>
    <style>
      .st0 {
        fill: #646363;
      }
    </style>
  </defs>
  <path class="st0" d="M176.48,77.61h15.25l-7.63-18.79-7.62,18.79ZM177.61,45.98h13.08l22.16,53.54h-13.4l-5.14-12.43h-20.4l-5.14,12.43h-13.33l22.16-53.54Z"/>
  <path class="st0" d="M259.95,55.53h-14.85c-4.09,0-7.14.32-8.99.96-1.45.49-2.81,1.52-3.85,2.97-1.52,1.92-2.01,3.61-2.25,7.22l-.16,1.45h30.1v9.48h-30.1c.8,9.23,4.81,12.36,15.73,12.36h14.37v9.55h-14.85c-6.66,0-11.31-.56-14.92-1.84-8.12-2.89-13.25-12.69-13.25-25.37,0-7.22,1.53-12.6,5.06-17.57,1.76-2.58,4.02-4.66,6.42-6.19,2.89-1.76,6.42-2.56,12.28-2.56h19.27v9.55Z"/>
  <path class="st0" d="M299.67,69.66c1.45,0,2.88-.17,3.85-.41,2.73-.64,4.41-3.21,4.41-6.98,0-2.49-.88-4.41-2.49-5.54-1.29-.88-2.73-1.2-5.78-1.2h-15.97v14.13h15.97ZM283.7,99.52h-11.4v-53.54h26.17c5.06,0,8.83.4,11.95,1.2,6.02,1.69,10.04,7.15,10.04,13.73,0,3.37-.81,7.14-2.17,9.39-.73,1.37-1.77,2.65-3.13,3.69-1.52,1.21-2.41,1.69-4.89,2.49,3.37,1.21,4.74,2.01,6.26,3.85.81,1.12,1.53,2.41,2.08,3.77.89,2.17,1.05,3.29,1.37,7.3.08,1.28.25,2.57.33,3.77.24,2,.41,2.57.96,4.33h-12.76c-.5-1.52-.65-2.08-.82-3.84l-.4-3.78c-.97-9.71-4.34-12.68-14.45-12.68h-9.15v20.31Z"/>
  <path class="st0" d="M355.76,54.64c-9.72,0-13.89,5.46-13.89,17.98-.09,12.52,4.33,18.22,13.97,18.22s13.72-5.7,13.72-18.3-4.34-17.9-13.8-17.9M356.48,99.84c-7.3,0-14.29-1.93-18.62-5.22-5.54-4.1-8.59-11.8-8.59-21.6,0-18.46,8.59-27.37,26.41-27.37s26.41,8.99,26.41,27.77c0,17.34-8.75,26.41-25.61,26.41"/>
  <polygon class="st0" points="403.81 99.52 392.89 99.52 392.89 45.98 407.5 45.98 428.77 85.87 428.77 45.98 439.61 45.98 439.61 99.52 425.56 99.52 403.81 60.26 403.81 99.52"/>
  <polygon class="st0" points="86.83 73.13 132.39 99.57 101.44 98.17 86.83 125.59 86.83 73.13"/>
  <polygon class="st0" points="67.67 98.17 36.97 99.57 82.27 73.13 82.27 125.59 67.67 98.17"/>
  <polygon class="st0" points="88.44 68.79 88.41 68.78 88.44 68.76 133.68 42.35 117.48 68.77 133.94 95.21 88.44 68.79"/>
  <polygon class="st0" points="51.66 68.77 35.45 42.35 80.7 68.76 80.72 68.78 80.7 68.79 35.2 95.2 51.66 68.77"/>
  <path class="st0" d="M78.64,54.56c0-2.36,1.38-4.4,3.38-5.34-2.11-5.28-7.28-9.01-13.33-9.01-.37,0-.74.01-1.1.04h0s16.95-28.19,16.95-28.19l16.85,28.18h0c-.33-.02-.67-.03-1.01-.03-6.04,0-11.21,3.73-13.33,9.02,1.99.95,3.36,2.98,3.36,5.33,0,3.25-2.64,5.89-5.89,5.89s-5.89-2.64-5.89-5.89"/>
  <path class="st0" d="M454.86,53.62h.85c1,0,1.8-.34,1.8-1.14,0-.71-.52-1.19-1.66-1.19-.47,0-.8.05-.99.1v2.23ZM454.81,58.02h-1.8v-7.77c.71-.14,1.7-.24,2.98-.24,1.47,0,2.13.24,2.7.57.43.33.76.95.76,1.71,0,.85-.67,1.52-1.61,1.8v.1c.76.29,1.18.86,1.42,1.9.24,1.18.38,1.66.57,1.94h-1.94c-.24-.29-.38-1-.62-1.9-.14-.85-.62-1.23-1.61-1.23h-.86v3.13ZM450.03,53.95c0,3.46,2.56,6.2,6.06,6.2s5.92-2.74,5.92-6.16-2.51-6.25-5.97-6.25-6.01,2.8-6.01,6.21M464,53.95c0,4.41-3.46,7.86-7.96,7.86s-8-3.46-8-7.86,3.55-7.77,8-7.77,7.96,3.46,7.96,7.77"/>
</svg>