<?xml version="1.0" encoding="UTF-8"?>
<svg id="Layer_1" xmlns="http://www.w3.org/2000/svg" version="1.1" viewBox="0 0 2624.24 340.02">
  <!-- Generator: Adobe Illustrator 30.0.0, SVG Export Plug-In . SVG Version: 2.1.1 Build 123)  -->
  <defs>
    <style>
      .st0 {
        fill: #005587;
      }
    </style>
  </defs>
  <path class="st0" d="M290.11,323.43H78.95V19.19h205.06c42.67,0,77.06,34.48,77.06,77.82v24.77c0,17.69-5.22,32.72-15.23,45.54,13.93,14.14,20.89,32.72,20.89,53.95v24.77c0,43.32-34.4,77.38-76.62,77.38M305.79,97.02c0-11.95-10.02-22.11-21.78-22.11h-150.2v68.53h150.2c11.76,0,21.78-9.73,21.78-21.65v-24.76ZM312.31,221.28c0-11.95-10.44-22.11-22.2-22.11h-156.3v68.53h156.3c11.76,0,22.2-9.29,22.2-21.65v-24.76h0Z"/>
  <path class="st0" d="M455.41,221.72v101.71h-50.9V19.19h209.23c39.68,0,66.93,30.06,66.93,73.84v54.83c0,35.82-18.83,63.68-48.1,71.65l59.72,103.91h-60.53l-58.51-101.71h-117.85ZM629.76,92.59c0-11.04-6.01-17.69-16.02-17.69h-158.33v91.09h158.32c10.02,0,16.02-7.07,16.02-18.13v-55.27h0Z"/>
  <path class="st0" d="M725.97,19.32h52.96v207.55c0,25.88,19.19,47.69,43.8,47.69h94.26c24.2,0,43.8-21.8,43.8-47.69V19.32h52.98v207.09c0,57.68-42.96,105.36-96.77,105.36h-94.26c-53.8,0-96.76-47.69-96.76-105.36V19.32Z"/>
  <path class="st0" d="M1508.8,264.46c3.37,9.1,4.64,10.46,5.9,10.46h13.51c1.26,0,2.53-1.36,5.9-10.46l89.89-245.14h57.8c-97.88,267.43-98.32,266.52-98.32,267.43-6.74,15.92-18.35,44.06-51.26,44.06h-21.76c-32.92,0-44.28-28.13-51.02-44.06,0-.91-.42,0-98.32-267.43h57.8l89.88,245.14Z"/>
  <path class="st0" d="M1686.86,121.44c0-60.13,44.79-107.57,102.19-107.57h116.05c56.94,0,102.43,46.96,102.43,107.1v100.68c0,60.13-45.62,107.14-102.56,107.14l-115.49-.37c-57.4,0-102.62-48.05-102.62-108.17v-98.81h0ZM1952.33,119.57c0-27.03-21.47-49.88-46.88-49.88h-116.52c-25.41,0-46.88,23.32-46.88,50.35v101.61c0,27.5,21.47,51.27,46.88,51.27h116.52c25.41,0,46.88-21.91,46.88-48.94v-104.41Z"/>
  <path class="st0" d="M2375.18,323.42c-33.52,0-60.12-28.74-60.12-65V19.18h51.94v239.68c0,4.86,3.68,8.84,8.19,8.84h170.11v55.71h-170.11Z"/>
  <path class="st0" d="M1343.28,323.43h-52.98V115.88c0-25.88-19.19-47.69-43.8-47.69h-94.26c-24.2,0-43.81,21.8-43.81,47.69v207.54h-52.96V116.34c0-57.68,43.07-103.97,96.89-103.97l93.84-.16c53.8,0,97.07,46.46,97.07,104.13v207.08Z"/>
  <path class="st0" d="M2114.67,323.46c-33.52,0-60.12-28.74-60.12-65V19.23h51.94v239.68c0,4.86,3.68,8.84,8.19,8.84h170.11v55.71h-170.11Z"/>
</svg>