<?xml version="1.0" encoding="UTF-8"?>
<svg id="Layer_2" data-name="Layer 2" xmlns="http://www.w3.org/2000/svg" viewBox="0 0 783.04 303.62">
  <defs>
    <style>
      .cls-1 {
        fill: #c9252d;
      }

      .cls-1, .cls-2 {
        fill-rule: evenodd;
        stroke-width: 0px;
      }

      .cls-2 {
        fill: #0c4ea2;
      }
    </style>
  </defs>
  <g id="Layer_1-2" data-name="Layer 1">
    <g>
      <path class="cls-2" d="M780.24,149.32c.14-74.44-17.73-147.99-104.64-149.3-51.89-.78-116.43,25.75-200.2,67.38-41.15,20.45-80.37,42-121.38,65.47l-71.03,40c-2.07,1.19-.54,3.76.99,3.12,8.53-4.36,42.72-23.97,95.99-53.39,31.86-17.6,70.6-37.25,105.55-53.24,43.54-19.91,83.5-34.43,104.84-38.87,22.48-4.68,63.85-9.68,83.91-1.77,47.01,18.55,56.09,61.16,55.53,120.61h50.44Z"/>
      <polygon class="cls-1" points="92.38 36.07 169.68 36.07 169.68 64.35 123.82 64.35 123.82 87.31 162.97 87.31 162.97 113.84 123.82 113.84 123.82 167.56 92.38 167.56 92.38 36.07 92.38 36.07"/>
      <polygon class="cls-1" points=".2 36.07 77.5 36.07 77.5 64.35 31.64 64.35 31.64 87.31 70.79 87.31 70.79 113.84 31.64 113.84 31.64 167.56 .2 167.56 .2 36.07 .2 36.07"/>
      <path class="cls-1" d="M181.32,123.84l30.06.19c.09,6.18-.27,10.36.69,15.37.96,5,4.14,9.08,10.21,9.08,4.56,0,7.38-1.94,9.02-3.87,2.14-2.51,2.78-4.94,2.78-8.43s-1.38-7.52-3.73-10.19c-2.35-2.66-7.64-7.12-15.11-11.91-11.4-7.31-16.92-10.54-22.94-17.23-5.98-6.64-8.73-13.35-9.5-24.1-.49-6.79,1-14.16,4.12-20.22,3.09-5.99,7.22-10.5,13.26-14.16,6.19-3.75,13.29-5.3,24.06-5.3,13.23,0,24.33,4.26,31.04,11.5,6.41,6.91,8.49,17.2,8.29,30.91h-28.64c-.18-5.89.22-11.95-2.18-14.87-1.84-2.24-4.3-4.28-9.32-4.32-4.27-.03-6.58,2.03-8.26,4.45-1.57,2.26-2.46,5.24-1.86,8.03.41,1.91,1.42,4.94,3.03,6.51,6.75,6.55,17.96,13.22,23.48,16.64,6.11,3.79,14.05,9.7,17.77,14.39,3.72,4.69,7.26,11.84,7.5,19.01.29,8.46.26,17.57-3.15,24.92-3.39,7.31-6.24,11.45-12.47,15.73-6.2,4.25-15.65,6.62-25.7,6.62-17.57,0-29.02-6.09-35.76-14.72-6.77-8.66-5.73-20.69-6.67-34.03h0Z"/>
      <path class="cls-1" d="M0,209.2h43.52v15.49h-24.95v14.21h22.58v15.53h-22.58v33.07H0v-78.3h0ZM749.56,271.55l12,.07c.04,2.23-.11,3.73.27,5.53.38,1.8,1.65,3.17,4.07,3.17,1.82,0,2.64-.33,3.6-1.3.88-.89,1.11-1.78,1.11-3.04s-.55-2.71-1.49-3.66c-.94-.96-3.05-2.56-6.03-4.29-4.55-2.63-6.76-3.79-9.16-6.2-2.39-2.39-3.48-4.81-3.79-8.67-.2-2.44.4-5.09,1.65-7.27,1.23-2.16,2.88-3.78,5.29-5.1,2.47-1.35,5.3-1.91,9.6-1.91,5.28,0,9.71,1.53,12.39,4.14,2.56,2.49,3.39,6.19,3.31,11.12h-11.43c-.07-2.12.1-4.11-.94-5.11-1.01-.96-1.58-1.76-3.65-1.8-1.7-.04-2.63.73-3.29,1.6-.62.81-.98,1.88-.74,2.89.16.69.56,1.78,1.21,2.34,2.7,2.36,7.17,4.76,9.37,5.99,2.44,1.36,5.68,3.52,7.09,5.18,1.42,1.66,2.9,4.26,2.99,6.84.12,3.04.17,6.38-1.29,8.94-1.48,2.58-2.32,4.37-4.94,5.69-2.63,1.32-6.25,2.38-10.26,2.38-7.01,0-11.58-2.19-14.27-5.3-2.7-3.12-2.29-7.45-2.66-12.24h0ZM579.84,271.55l12,.07c.04,2.23-.11,3.73.27,5.53.38,1.8,1.65,3.17,4.07,3.17,1.82,0,2.64-.33,3.6-1.3.88-.89,1.11-1.78,1.11-3.04s-.55-2.71-1.49-3.66c-.94-.96-3.05-2.56-6.03-4.29-4.55-2.63-6.76-3.79-9.16-6.2-2.39-2.39-3.48-4.81-3.79-8.67-.2-2.44.4-5.09,1.65-7.27,1.23-2.16,2.88-3.78,5.29-5.1,2.47-1.35,5.3-1.91,9.6-1.91,5.28,0,9.71,1.53,12.39,4.14,2.56,2.49,3.39,6.19,3.31,11.12h-11.43c-.07-2.12.1-4.11-.94-5.11-1.01-.96-1.58-1.76-3.65-1.8-1.7-.04-2.63.73-3.29,1.6-.63.81-.98,1.88-.74,2.89.16.69.56,1.78,1.21,2.34,2.7,2.36,7.17,4.76,9.37,5.99,2.44,1.36,5.68,3.52,7.09,5.18,1.42,1.66,2.9,4.26,2.99,6.84.12,3.04.17,6.38-1.29,8.94-1.48,2.58-2.32,4.37-4.94,5.69-2.63,1.32-6.25,2.38-10.26,2.38-7.01,0-11.58-2.19-14.27-5.3-2.7-3.12-2.29-7.45-2.66-12.24h0ZM634.88,227.53v12.55h6.48v10.04h-6.48v19.22c0,1.99-.11,3.12,0,3.99.14,1.05.08,3.2,1.28,3.86,1.42.77,3.46.85,5.21.67l-.09,9.63c-3.09.24-4.76.09-7.8.09s-5.37-.33-6.93-1.5c-1.54-1.15-3-2.53-3.74-4.84-.75-2.36-1.12-6.78-1.12-12.04v-19.08h-4.82v-10.04h4.82v-12.55h13.18ZM721.63,246.19l.38.2c1.64-2.43,2.76-4.16,4.39-5.22,1.63-1.06,4.25-2.05,6.47-2.05,3.29,0,6.39,1.32,8.3,4.19,1.9,2.86,2.32,7.43,2.32,15.25v28.49h-12.61v-24.74c0-2.82-.17-6.48-.19-7.87-.03-2.25-1.77-4.56-3.98-4.52-2.88.06-3.51,3.01-3.8,5.02-.15,1.02-.21,2.94-.24,5.16v26.95h-12.61v-24.74c0-2.82-.17-6.48-.18-7.87-.03-2.25-1.77-4.56-3.98-4.52-2.88.06-3.5,3.01-3.8,5.02-.26,1.8-.26,6.42-.26,10.5v21.61h-12.55v-46.83h12.55v5.4c1.64-2.43,2.63-3.52,4.26-4.58,1.63-1.06,3.73-1.92,5.95-1.92,3.29,0,6.39,1.32,8.3,4.19.54.81.96,1.76,1.28,2.88h0ZM345.4,227.53v12.55h6.48v10.04h-6.48v19.22c0,1.99-.11,3.12,0,3.99.14,1.05.08,3.2,1.28,3.86,1.42.77,3.46.85,5.21.67l-.09,9.63c-3.09.24-4.76.09-7.8.09s-5.37-.33-6.93-1.5c-1.54-1.15-3-2.53-3.74-4.84-.75-2.36-1.12-6.78-1.12-12.04v-19.08h-4.82v-10.04h4.82v-12.55h13.18ZM541.5,239.66h13.22l4.94,30.21,5.2-30.21h12.98l-10.78,48.5c-1.25,5.61-2.97,10.56-4.5,12.49-2.18,2.75-4.2,2.96-8.67,2.96l-8.09-.03.05-11.25,4.2.03c1.64.01,2.86-1.54,2.84-3.6l-11.39-49.11h0ZM381.03,240.22h12.98v5.4c1.7-2.43,2.72-3.52,4.41-4.58,1.68-1.06,3.86-1.92,6.16-1.92,3.4,0,6.61,1.32,8.58,4.19,1.96,2.86,2.4,7.43,2.4,15.25v28.49h-13.04v-24.74c0-2.82-.17-6.48-.19-7.87-.03-2.25-1.83-4.56-4.12-4.52-2.98.06-3.63,3.01-3.93,5.02-.27,1.8-.26,6.42-.26,10.5v21.61h-12.98v-46.83h0ZM358.39,224.17h13.54v11.83h-13.54v-11.83h0ZM358.39,240.6h13.54v46.9h-13.54v-46.9h0ZM682,265.66h-21.85c-.1,2.91-.08,6.13-.06,8.12.03,2.34,1.36,5.21,4.4,5.21,3.99,0,4.93-2.06,4.78-3.71l.08-4.78,12.2.02c-.13,11.03-2.84,12.55-5.32,14.64-2.44,2.05-6.09,3.09-12.54,3.28-4,.12-8.45-1.19-10.76-2.95-2.29-1.74-3.49-3.38-4.6-6.19-1.11-2.82-1.31-5.23-1.56-7.82l-.13-10.09.1-7.94c.04-2.89,1.91-6.94,3.65-8.93,3.6-4.12,7.92-6.32,13.26-6.32,4.35,0,9.28,1.05,11.79,3.09,2.51,2.05,5.3,4.87,6.13,8.87.8,3.87.43,6.84.43,13.07v2.43h0ZM669.8,257.33l-.06-5.46c-.02-2.33-2.72-3.73-4.69-3.73s-4.26,2.01-4.27,4.1l-.02,5.09h9.05ZM445.04,239.66h13.31v42.86l.03,2.01c.04,2.84-.15,5.4-1.02,7.99-.86,2.58-1.57,3.99-3.01,5.57-1.46,1.61-2.98,3.12-5.21,3.84-2.21.72-7.18,1.32-10.04,1.32-6.58,0-10.38-1.76-12.78-3.96-2.64-2.42-3.68-4.18-3.68-7.41,0-.57.04-1.87.1-2.87h13.35c.05,1.68.21,3.28.84,3.88.93.88,1.82,1.05,3.23,1.05,1.79,0,4.09-1.31,4.1-2.92.02-3.32-.04-5.3-.03-9.47-2.33,2.75-7.05,3.5-9.28,3.5-4.38,0-8.89-1.4-11-7.26-1.42-3.96-1.2-3.96-1.2-17.42s1.1-15.09,4.22-18.14c2.67-2.61,4.36-2.92,8.33-2.92,2.55,0,4.58.64,6.19,1.89,1.55,1.2,2.18,1.9,3.53,3.76v-5.3h0ZM440.25,250.47c2.38,0,4.32,1.53,4.32,3.41v17.94c0,1.88-1.95,3.41-4.32,3.41h0c-2.38,0-4.32-1.53-4.32-3.41v-17.94c0-1.88,1.95-3.41,4.32-3.41h0ZM266.05,239.66h13.31v42.86l.03,2.01c.05,2.84-.15,5.4-1.02,7.99-.86,2.58-1.57,3.99-3.01,5.57-1.46,1.61-2.98,3.12-5.2,3.84-2.21.72-7.18,1.32-10.04,1.32-6.58,0-10.38-1.76-12.78-3.96-2.64-2.42-3.68-4.18-3.68-7.41,0-.57.04-1.87.1-2.87h13.35c.05,1.68.21,3.28.84,3.88.93.88,1.82,1.05,3.23,1.05,1.79,0,4.09-1.31,4.11-2.92.02-3.32-.04-5.3-.03-9.47-2.33,2.75-7.05,3.5-9.28,3.5-4.38,0-8.89-1.4-11-7.26-1.42-3.96-1.2-3.96-1.2-17.42s1.1-15.09,4.22-18.14c2.67-2.61,4.36-2.92,8.33-2.92,2.55,0,4.58.64,6.2,1.89,1.55,1.2,2.18,1.9,3.53,3.76v-5.3h0ZM261.26,250.47c2.38,0,4.32,1.53,4.32,3.41v17.94c0,1.88-1.95,3.41-4.32,3.41h0c-2.38,0-4.32-1.53-4.32-3.41v-17.94c0-1.88,1.95-3.41,4.32-3.41h0ZM287.91,224.9h12.98v20.72c1.7-2.43,2.72-3.52,4.41-4.58,1.68-1.06,3.86-1.92,6.16-1.92,3.4,0,6.61,1.32,8.58,4.19,1.96,2.86,2.4,7.43,2.4,15.25v28.49h-13.04v-24.74c0-2.82-.17-6.48-.19-7.87-.03-2.25-1.83-4.56-4.12-4.52-2.98.06-3.63,3.01-3.93,5.02-.27,1.8-.27,6.42-.27,10.5v21.61h-12.98v-62.15h0ZM222.99,224.17h13.54v11.83h-13.54v-11.83h0ZM222.99,240.6h13.54v46.9h-13.54v-46.9h0ZM170.97,209.2h43.52v15.49h-24.96v14.21h22.58v15.53h-22.58v33.07h-18.57v-78.3h0ZM74.56,240.41h11.81v6.2c1.52-2.98,2.85-3.99,4.37-5.01,1.52-1.02,4.52-2.58,6.83-2.03l-.35,15.35c-1.46-.86-3.6-1.31-4.64-.85-1.48.66-3.64.16-4.34,2.14-1.12,3.14-1,7.88-1,15.39v15.76h-12.67v-46.95h0ZM51.75,224.17h13.54v11.83h-13.54v-11.83h0ZM51.75,240.6h13.54v46.9h-13.54v-46.9h0ZM137.67,265.66h-21.85c-.1,2.91-.08,6.13-.06,8.12.03,2.34,1.36,5.21,4.4,5.21,3.99,0,4.93-2.06,4.78-3.71l.08-4.78,12.2.02c-.13,11.03-2.84,12.55-5.32,14.64-2.44,2.05-6.09,3.09-12.54,3.28-4,.12-8.45-1.19-10.76-2.95-2.29-1.74-3.49-3.38-4.6-6.19-1.11-2.82-1.31-5.23-1.56-7.82l-.13-10.09.1-7.94c.04-2.89,1.91-6.94,3.65-8.93,3.6-4.12,7.92-6.32,13.26-6.32,4.34,0,9.28,1.05,11.79,3.09,2.51,2.05,5.3,4.87,6.13,8.87.8,3.87.43,6.84.43,13.07v2.43h0ZM125.47,257.33l-.06-5.46c-.02-2.33-2.72-3.73-4.69-3.73s-4.26,2.01-4.27,4.1l-.02,5.09h9.05ZM490.17,260.33l17.36.11c.05,3.65-.16,6.11.4,9.07.56,2.95,2.39,5.2,5.9,5.2,2.63,0,3.82-.54,5.21-2.13,1.27-1.45,1.6-2.91,1.6-4.98s-.8-4.44-2.15-6.01c-1.36-1.57-4.41-4.2-8.73-7.03-6.58-4.31-9.77-6.22-13.25-10.17-3.45-3.92-5.04-7.88-5.49-14.22-.28-4,.58-8.35,2.38-11.92,1.78-3.53,4.17-6.19,7.66-8.36,3.57-2.21,7.67-3.13,13.89-3.13,7.64,0,14.05,2.51,17.92,6.78,3.7,4.08,4.9,10.15,4.79,18.23h-16.54c-.11-3.47.14-6.75-1.36-8.37-1.46-1.57-2.28-2.88-5.29-2.95-2.47-.06-3.8,1.2-4.77,2.63-.91,1.33-1.42,3.09-1.08,4.73.24,1.13.82,2.92,1.75,3.84,3.9,3.87,10.37,7.8,13.56,9.82,3.53,2.24,8.21,5.78,10.26,8.49,2.05,2.72,4.19,6.98,4.33,11.22.17,4.99.25,10.47-1.87,14.65-2.14,4.23-3.35,7.16-7.15,9.33-3.8,2.17-9.03,3.91-14.84,3.91-10.14,0-16.75-3.59-20.65-8.68-3.91-5.11-3.31-12.21-3.85-20.07h0Z"/>
    </g>
  </g>
</svg>