<svg width="2753.65" height="360" viewBox="0 0 2753.65 360" xmlns="http://www.w3.org/2000/svg">
	<defs>
		<clipPath id="a">
			<path fill="none" d="M0 360h2753.655V0H0Z"/>
		</clipPath>
		<clipPath id="b">
			<path fill="none" d="M0 180C0 80.686 80.51.176 179.825.176c99.313 0 179.823 80.51 179.823 179.824 0 12.316-1.241 24.343-3.6 35.964H179.842l-.017.001c-19.863 0-35.965-16.102-35.965-35.965s16.102-35.965 35.965-35.965l.017.001h101.713c-14.814-41.901-54.756-71.931-101.73-71.931C120.236 72.105 71.93 120.412 71.93 180s48.306 107.895 107.895 107.895c.036 0 .072-.004.109-.004h143.759c-32.807 43.678-85.037 71.934-143.868 71.934C80.51 359.825 0 279.314 0 180m863.138 179.819c-143.856 0-143.856-71.928-143.856-71.928h215.784c143.855 0 143.855 71.928 143.855 71.928Zm-359.639 0c-143.855 0-143.855-71.928-143.855-71.928h215.783c143.855 0 143.855 71.928 143.855 71.928Zm359.82-172.618V36.167l-.001-.019c0-19.862 16.103-35.964 35.965-35.964s35.965 16.102 35.965 35.964l-.001.019-.001 171.603c-33.087-3.331-56.024-11.223-71.927-20.569m-359.648 0 .001-151.034-.002-.019c0-19.862 16.103-35.964 35.965-35.964s35.964 16.102 35.964 35.964v.019l-.001 171.603c-33.087-3.331-56.024-11.223-71.927-20.569"/>
		</clipPath>
		<radialGradient id="c" cx="0" cy="0" r="1" fr="0" fx="0" fy="0" gradientUnits="userSpaceOnUse">
			<stop offset="0" stop-color="#5bc4f1"/>
			<stop offset=".096" stop-color="#00b4ec"/>
			<stop offset=".296" stop-color="#0089bf"/>
			<stop offset=".482" stop-color="#00679b"/>
			<stop offset=".639" stop-color="#004f82"/>
			<stop offset=".779" stop-color="#003f71"/>
			<stop offset=".888" stop-color="#003869"/>
			<stop offset="1" stop-color="#003869"/>
		</radialGradient>
	</defs>
	<path fill="none" d="M0 0h2753.655v360H0Z"/>
	<g clip-path="url(#a)" transform="matrix(1 0 0 -1 0 360)">
		<path fill="#003869" d="M1204.668 8.894h9.454v346.127h-9.454Zm1014.351 298.068h-43.107v48.059h43.107Zm420.854-77.038q-29.215-.001-49.002-21.205c-13.193-13.977-20.188-31.802-20.97-53.475h140.171q-2.597 27.561-12.017 44.052-17.432 30.625-58.182 30.628m-729.513-92.585c-5.181-3.298-11.859-6.043-20.021-8.242-8.167-2.198-16.178-3.773-24.031-4.715l-25.678-3.299q-23.089-3.062-34.631-9.658c-13.034-7.381-19.556-19.16-19.556-35.336q.004-18.371 13.434-28.971c8.949-7.068 19.552-10.606 31.8-10.606q22.381 0 43.345 10.365 35.338 17.199 35.338 56.307Zm488.457 129.571q53.71-.002 72.557-37.46 10.364-20.497 10.366-58.658V8.949h-43.111v159.018q-.001 23.085-6.833 37.22c-7.539 15.705-21.203 23.562-40.994 23.562q-15.073-.003-24.73-3.066-17.432-5.183-30.629-20.73-10.6-12.485-13.895-25.913-3.068-13.193-3.069-37.928V8.949h-42.4v252.304h40.284v-35.804q17.905 22.145 37.93 31.804 20.022 9.658 44.524 9.657M2219.019 8.949h-43.107v251.129h43.107Zm-93.534 257.961q1.179 0 4.002-.234 2.83-.234 9.663-.941v-44.76c-2.513.471-4.875.785-7.074.941q-3.064.235-6.829.234-32.038 0-49.237-20.73-17.198-20.495-17.198-47.351V8.949h-42.401v252.304h40.285v-43.577q4.948 12.721 24.265 30.862c12.875 12.249 27.722 18.372 44.524 18.372M1530.33 62.425l98.704 292.596h66.431V8.949h-44.517v204.252c0 7.067.152 18.766.466 35.096.313 16.333.475 33.851.475 52.541L1553.178 8.949h-46.41l-99.41 291.889v-10.606q-.001-12.722.469-38.87c.468-17.274.706-29.994.706-38.161V8.949h-44.758v346.072h67.138Zm322.555 204.952c29.68 0 53.79-5.649 72.322-16.956 18.374-11.308 27.561-28.903 27.561-52.775V52.3c0-4.397.865-7.936 2.592-10.606q2.828-4.001 11.541-4 2.83 0 6.364.234 3.532.47 7.535 1.175V7.774q-9.892-2.826-15.074-3.533t-14.141-.708c-14.602 0-25.206 5.183-31.801 15.548-3.457 5.497-5.887 13.271-7.301 23.321q-12.958-16.96-37.219-29.446C1859.09 4.633 1841.261.468 1821.787.467c-23.399 0-42.563 7.071-57.482 21.205q-22.143 21.437-22.145 53.475 0 35.1 21.903 54.418 21.91 19.318 57.483 23.796l67.617 8.481c9.735 1.257 16.257 5.339 19.553 12.249q2.827 5.655 2.826 16.256-.001 21.67-15.547 31.329-15.316 9.895-44.051 9.898-33.219-.001-47.121-17.905-7.772-9.895-10.131-29.447h-39.577q1.179 46.644 30.156 64.783c19.473 12.25 42.015 18.372 67.614 18.372m789.576-.467q26.857-.002 52.06-12.723 25.21-12.487 38.402-32.511 12.718-19.08 16.957-44.52c2.513-11.621 3.775-30.156 3.775-55.599h-184.929q1.173-38.4 18.139-61.724c11.307-15.39 28.819-23.08 52.532-23.08q33.218-.002 53.008 21.905 11.307 12.72 16.015 29.446h41.701q-1.65-13.899-11.072-31.095-9.19-16.96-20.732-27.797-19.32-18.848-47.823-25.445-15.315-3.768-34.63-3.767-47.117 0-79.862 34.161-32.743 34.394-32.745 96.111 0 60.781 32.979 98.71c21.986 25.286 50.733 37.928 86.225 37.928"/>
	</g>
	<path fill="none" d="M0 180c0 99.314 80.51 179.824 179.825 179.824 99.313 0 179.823-80.51 179.823-179.824 0-12.316-1.241-24.343-3.6-35.964H179.842l-.017-.001c-19.863 0-35.965 16.102-35.965 35.965s16.102 35.965 35.965 35.965l.017-.001h101.713c-14.814 41.901-54.756 71.931-101.73 71.931-59.589 0-107.895-48.307-107.895-107.895S120.236 72.105 179.825 72.105l.109.004h143.759C290.886 28.431 238.656.175 179.825.175 80.51.175 0 80.686 0 180M863.138.181c-143.856 0-143.856 71.928-143.856 71.928h215.784c143.855 0 143.855-71.928 143.855-71.928Zm-359.639 0c-143.855 0-143.855 71.928-143.855 71.928h215.783C719.282 72.109 719.282.181 719.282.181Zm359.82 172.618v151.034l-.001.019c0 19.862 16.103 35.964 35.965 35.964s35.965-16.102 35.965-35.964l-.001-.019-.001-171.603c-33.087 3.331-56.024 11.223-71.927 20.569m-359.648 0 .001 151.034-.002.019c0 19.862 16.103 35.964 35.965 35.964s35.964-16.102 35.964-35.964v-.019l-.001-171.603c-33.087 3.331-56.024 11.223-71.927 20.569"/>
	<g clip-path="url(#b)" transform="matrix(1 0 0 -1 0 360)">
		<path fill="url(#c)" d="M-.967-.02h2.529v.36H-.967z" transform="rotate(180.678 526.382 172.09)scale(-1090.34128 1090.34128)"/>
	</g>
</svg>
