<?xml version="1.0" encoding="UTF-8"?>
<svg id="Layer_1" xmlns="http://www.w3.org/2000/svg" xmlns:xlink="http://www.w3.org/1999/xlink" version="1.1" viewBox="0 0 595.28 270.01">
  <!-- Generator: Adobe Illustrator 30.0.0, SVG Export Plug-In . SVG Version: 2.1.1 Build 123)  -->
  <defs>
    <style>
      .st0 {
        fill: none;
      }

      .st1 {
        fill: #252122;
      }

      .st2 {
        fill-rule: evenodd;
      }

      .st3 {
        fill: #fff;
      }

      .st4 {
        fill: #008ecc;
      }

      .st5 {
        clip-path: url(#clippath);
      }
    </style>
    <clipPath id="clippath">
      <rect class="st0" x="73.01" y="67.05" width="447.6" height="134.13"/>
    </clipPath>
  </defs>
  <g class="st5">
    <g>
      <path class="st1" d="M516.71,78.63c1.21.7,2.16,1.65,2.86,2.86s1.04,2.55,1.04,4.01-.35,2.83-1.04,4.03c-.7,1.21-1.65,2.17-2.87,2.87-1.22.71-2.56,1.06-4.02,1.06s-2.81-.35-4.03-1.06c-1.22-.7-2.17-1.66-2.87-2.87-.7-1.21-1.05-2.55-1.05-4.03s.35-2.82,1.05-4.03c.7-1.2,1.65-2.15,2.86-2.85s2.55-1.05,4.04-1.05,2.82.35,4.03,1.05M516.19,91.56c1.05-.61,1.87-1.44,2.47-2.51.6-1.06.9-2.25.9-3.55s-.3-2.46-.9-3.52c-.6-1.06-1.43-1.89-2.47-2.5-1.05-.61-2.22-.91-3.51-.91s-2.46.31-3.52.91c-1.06.61-1.89,1.44-2.49,2.5-.6,1.06-.9,2.23-.9,3.52s.3,2.49.9,3.55c.6,1.06,1.43,1.9,2.49,2.51s2.23.91,3.52.91,2.46-.3,3.51-.91M515.38,87.33l1.72,2.88h-1.83l-1.76-3.01c-.17-.28-.37-.47-.57-.58-.21-.11-.47-.16-.79-.16h-1.17v3.76h-1.63v-9.39h3.92c1.04,0,1.84.24,2.41.74.57.49.85,1.17.85,2.05,0,.72-.21,1.32-.63,1.79s-1.01.77-1.77.89c.48.13.9.48,1.25,1.03M514.46,84.81c.29-.24.44-.62.44-1.13,0-.54-.15-.93-.44-1.18s-.75-.36-1.39-.36h-2.09v3.04h2.09c.63,0,1.09-.12,1.39-.36"/>
      <rect class="st4" x="77.41" y="191.5" width="127.4" height="2.14"/>
      <path class="st2" d="M218.72,82.81l.08,9.53s9.42-.27,11.22.77c.35.15.58.77.69,1.73.11.69.04,1.62-.04,2.65-.12,2-.12,4.38-.12,6.72s.04,4.65.04,6.38c.12,5.72.08,36.39.08,42.39,0,1.5-.35,2.85-.46,4.23-.73,8.49-3.65,14.91-6.57,19.41-5.72,8.11-16.68,14.91-16.68,14.91,0,0,.54,1.04,1.58,3.92,1.08,3.11,1.58,5.73,1.58,5.73,0,0,8.34-4.96,16.68-12.03,6-4.96,11.72-10.99,15.37-16.72,3.04-4.76,5.42-8.34,7.15-12.84s2.77-9.88,3.11-18.29c.04-.61.04-1.31.08-1.96.08-1.19.04-3.11.04-4.81,0-6.03.04-11.8.04-16.83,0-6.07-.04-11.11,0-14.91.04-3.65.15-6.07.15-6.88,0-2.35,1.85-3.92,4.19-3.92h7.84l-.19-9.19h-45.86Z"/>
      <path class="st2" d="M268.45,82.81l-.04,9.19s3.38,0,6.5-.04c3.42,0,5.49,2.11,5.49,4.19,0,2.35.08,43.85.08,46.46s-1.27,4.42-3.88,4.42c-2.61.04-8.15-.04-8.15-.04v11.18h75.86v-30.78l-11.11-.04s.27,8.11-2.84,14.37c-2.35,4.69-4.69,5.23-10.72,5.23-6.76.04-17.49.04-17.49.04l-.04-22.95s7.57-.81,10.19,2.58c2.61,3.12,1.84,9.65,1.84,9.65h9.42l-.08-34.2h-8.61s.27,6.53-2.35,9.15c-2.58,2.61-10.15,2.65-10.15,2.65l-.04-20.91s10.14-.27,15.91,0c5.72-.04,10.45,2.31,12.53,7.53,1.85,5.22,1.58,11.22,1.58,11.22l12.03-.04-.08-28.86h-75.86,0Z"/>
      <path class="st2" d="M350.37,82.81l.08,28.59h10.95s1.54-8.88,2.08-10.45c3.38-9.15,13.03-7.84,13.03-7.84,0,0,.08,45.66.08,49.08,0,3.12-1.96,4.8-5.88,4.8-3.92.04-6.03,0-6.03,0l-.08.96.08,10.22h46.35v-11.18h-5.76c-4.19.04-6.65-.88-6.65-4.8s.08-48.85.08-48.85c0,0,9.15-1.34,11.76,5.19,2.65,6.53,3.15,13.57,3.15,13.57l11.76-.04v-29.25h-75Z"/>
      <path class="st2" d="M496.26,82.81h-9.45s-.15,6.19-2.23,6.19c-1.85,0-8.92-8.07-26.4-8.03-17.72.04-29.71,11.8-29.71,23.29.04,11.22,7.61,22.14,25.63,24.98,17.75,2.84,25.32,5.45,25.32,13.3,0,3.88-4.15,7.84-11.72,7.84s-18.02-3.88-22.44-9.61c-4.73-6-5.26-11.22-5.26-11.22h-11.49l.08,28.63h10.99s.73-3.07,2.04-3.84c1.31-.54,10.19,7.53,27.67,7.53,17.75-.04,30.78-9.19,30.78-23.83-.04-14.87-8.15-21.91-25.63-25.52-17.26-3.65-25.6-4.15-25.6-11.95,0-5.23,8.34-8.11,14.33-8.15,5.73,0,14.87,3.12,18.3,7.8,3.11,4.46,4.19,10.95,4.19,10.95l10.61-.19v-28.17h0Z"/>
      <rect class="st4" x="226.14" y="191.39" width="270.35" height="2.14"/>
      <path class="st4" d="M73.01,123c0-30.9,25.05-55.95,55.95-55.95s55.96,25.05,55.96,55.95-25.05,55.95-55.96,55.95-55.95-25.05-55.95-55.95"/>
      <path class="st3" d="M74.71,123c0-29.97,24.29-54.26,54.26-54.26s54.26,24.29,54.26,54.26-24.29,54.26-54.26,54.26-54.26-24.29-54.26-54.26"/>
      <path class="st4" d="M132.16,125.68c11.2-10.58,21.6-28.89,27.74-40.95-8.45-6.84-19.21-10.93-30.93-10.93-27.18,0-49.21,22.03-49.21,49.21,0,1.52.07,3.03.2,4.52,23.23,7.92,43.7,6.18,52.19-1.84"/>
      <path class="st4" d="M164.36,88.82c-8.34,18.34-18.71,39.78-23.36,47.87-5.78,10.07-9.62,16.6-16.89,20.14-5.77,2.81-14.01,4.39-26,4.52,8.44,6.8,19.17,10.88,30.86,10.88,27.18,0,49.21-22.03,49.21-49.21,0-13.28-5.26-25.33-13.82-34.19"/>
    </g>
  </g>
</svg>