<?xml version="1.0" encoding="UTF-8"?>
<svg id="Layer_1" xmlns="http://www.w3.org/2000/svg" version="1.1" viewBox="0 0 484 151">
  <!-- Generator: Adobe Illustrator 30.0.0, SVG Export Plug-In . SVG Version: 2.1.1 Build 123)  -->
  <defs>
    <style>
      .st0 {
        fill: #0e3742;
      }
    </style>
  </defs>
  <g id="Page-1">
    <g id="Artboard">
      <g id="mplogo_white">
        <g id="Group">
          <polygon id="Path" class="st0" points="58.39 124.2 60.81 124.2 60.81 140.5 58.3 140.5 58.3 127.75 47.03 139.89 35.75 127.75 35.75 140.5 33.15 140.5 33.15 124.2 35.49 124.2 46.94 136.42 58.39 124.2"/>
          <path id="Shape" class="st0" d="M90.64,140.5l-2.43-3.03h-17.69l-2.43,3.03h-3.12l13.01-16.3h2.69l13.01,16.3h-3.12.09ZM79.37,126.37l-7.11,8.93h14.31l-7.11-8.93h-.09Z"/>
          <path id="Shape1" data-name="Shape" class="st0" d="M97.93,140.5v-16.3h17.17c2.17,0,3.82.43,4.86,1.39,1.04.95,1.56,2.17,1.56,3.64s-.52,2.77-1.56,3.73c-1.04.95-2.69,1.39-4.86,1.39h-1.13l10.32,6.16h-4.25l-10.06-6.07h-9.54v6.07h-2.51ZM115.01,126.54h-14.57v5.64h14.57c2.6,0,3.82-.95,3.82-2.77s-1.3-2.77-3.82-2.77v-.09Z"/>
          <polygon id="Path1" data-name="Path" class="st0" points="128.36 140.5 128.36 124.2 130.88 124.2 130.88 140.5 128.36 140.5"/>
          <polygon id="Path2" data-name="Path" class="st0" points="135.47 126.54 135.47 124.2 161.22 124.2 161.22 126.54 149.61 126.54 149.61 140.5 147.09 140.5 147.09 126.54 135.47 126.54"/>
          <polygon id="Path3" data-name="Path" class="st0" points="165.91 140.5 165.91 124.2 168.42 124.2 168.42 140.5 165.91 140.5"/>
          <polygon id="Path4" data-name="Path" class="st0" points="200.33 124.2 202.76 124.2 202.76 140.5 200.24 140.5 200.24 127.75 188.97 139.89 177.7 127.75 177.7 140.5 175.19 140.5 175.19 124.2 177.53 124.2 188.97 136.42 200.42 124.2 200.33 124.2"/>
          <polygon id="Path5" data-name="Path" class="st0" points="209.52 140.5 209.52 124.2 232.41 124.2 232.41 126.54 212.12 126.54 212.12 131.31 230.07 131.31 230.07 133.39 212.12 133.39 212.12 138.16 232.41 138.16 232.41 140.5 209.52 140.5"/>
          <path id="Shape2" data-name="Shape" class="st0" d="M250.8,140.5v-16.3h17.52c2.17,0,3.82.43,4.86,1.39,1.04.95,1.56,2.17,1.56,3.73s-.52,2.77-1.56,3.73c-1.04.95-2.69,1.39-4.86,1.39h-15v6.07h-2.51ZM268.23,126.54h-14.91v5.55h14.91c2.51,0,3.82-.95,3.82-2.77s-1.3-2.77-3.82-2.77h0Z"/>
          <path id="Shape3" data-name="Shape" class="st0" d="M301.09,140.5l-2.43-3.03h-17.69l-2.43,3.03h-3.12l13.01-16.3h2.69l13.01,16.3h-3.12.09ZM289.82,126.37l-7.11,8.93h14.31l-7.11-8.93h-.09Z"/>
          <path id="Shape4" data-name="Shape" class="st0" d="M308.37,140.5v-16.3h17.17c2.17,0,3.82.43,4.86,1.39,1.04.95,1.56,2.17,1.56,3.64s-.52,2.77-1.56,3.73c-1.04.95-2.69,1.39-4.86,1.39h-1.13l10.32,6.16h-4.25l-10.06-6.07h-9.54v6.07h-2.51ZM325.46,126.54h-14.57v5.64h14.57c2.6,0,3.82-.95,3.82-2.77s-1.3-2.77-3.82-2.77v-.09Z"/>
          <polygon id="Path6" data-name="Path" class="st0" points="336.29 126.54 336.29 124.2 362.05 124.2 362.05 126.54 350.43 126.54 350.43 140.5 347.91 140.5 347.91 126.54 336.29 126.54"/>
          <polygon id="Path7" data-name="Path" class="st0" points="388.58 140.5 369.16 127.23 369.16 140.5 366.64 140.5 366.64 124.2 368.98 124.2 388.49 137.55 388.49 124.2 391.01 124.2 391.01 140.5 388.67 140.5 388.58 140.5"/>
          <polygon id="Path8" data-name="Path" class="st0" points="397.77 140.5 397.77 124.2 420.66 124.2 420.66 126.54 400.37 126.54 400.37 131.31 418.32 131.31 418.32 133.39 400.37 133.39 400.37 138.16 420.66 138.16 420.66 140.5 397.77 140.5"/>
          <path id="Shape5" data-name="Shape" class="st0" d="M426.39,140.5v-16.3h17.17c2.17,0,3.82.43,4.86,1.39,1.04.95,1.56,2.17,1.56,3.64s-.52,2.77-1.56,3.73c-1.04.95-2.69,1.39-4.86,1.39h-1.13l10.32,6.16h-4.25l-10.06-6.07h-9.54v6.07h-2.51ZM443.47,126.54h-14.57v5.64h14.57c2.6,0,3.82-.95,3.82-2.77s-1.3-2.77-3.82-2.77v-.09Z"/>
        </g>
        <g id="Group1" data-name="Group">
          <path id="Path9" data-name="Path" class="st0" d="M202.85,31.94c-5.9,13.61-17.69,40.75-17.69,40.75h38.41l27.23-62.69h-12.49c-19.68,0-29.66,8.5-35.46,21.94Z"/>
          <path id="Path10" data-name="Path" class="st0" d="M233.8,102.52c19.68,0,29.66-8.5,35.46-21.94l30.61-70.58h-12.49c-19.68,0-29.66,8.5-35.46,21.94l-30.7,70.58h12.57Z"/>
          <path id="Path11" data-name="Path" class="st0" d="M331.87,15.12c-5.2-4.34-11.53-5.12-14.83-5.12h-6.42l-27.31,62.61h9.19c1.82,0,3.64-.17,5.38-.35,11.71-1.56,22.02-6.76,30.44-15.87,5.98-7.2,9.97-14.74,10.41-24.63.26-6.33-2.17-12.75-6.85-16.65h0Z"/>
          <path id="Path12" data-name="Path" class="st0" d="M153.77,31.94c-5.9,13.61-17.69,40.75-17.69,40.75h38.41l27.23-62.69h-12.49c-19.68,0-29.66,8.5-35.46,21.94Z"/>
        </g>
      </g>
    </g>
  </g>
</svg>