<?xml version="1.0" encoding="UTF-8"?>
<svg id="Layer_1" xmlns="http://www.w3.org/2000/svg" xmlns:xlink="http://www.w3.org/1999/xlink" version="1.1" viewBox="0 0 595.28 523.89">
  <!-- Generator: Adobe Illustrator 30.0.0, SVG Export Plug-In . SVG Version: 2.1.1 Build 123)  -->
  <defs>
    <style>
      .st0, .st1 {
        fill: none;
      }

      .st1 {
        stroke: #00555e;
        stroke-miterlimit: 10;
      }

      .st2 {
        fill: #00555e;
      }

      .st3 {
        clip-path: url(#clippath);
      }
    </style>
    <clipPath id="clippath">
      <path class="st0" d="M235.8,229.36h3.66c6.43,0,7.09,4.3,7.09,6.42,0,3.66-2.42,6.71-7.01,6.71h-3.74v-13.13ZM224.26,220.73v51h11.97v-20.6c4.39,0,6.01,0,7.97,6.94l3.93,13.66h12.58l-5.25-16.67c-1.92-6.05-3.39-8.11-7.09-8.54v-.15c9.85-1.97,10.16-10.38,10.16-12.5,0-9.42-7.17-13.16-15.58-13.16h-18.69v.02ZM351.32,220.73l-8.9,32.8h-.15l-8.26-32.8h-18.05v51h10.96v-40.33h.15l11.04,40.33h7.9l11.47-40.33h.14v40.33h10.98v-51h-17.26,0ZM275.46,257.03c0-3.81,1.89-5.55,3.43-7.23l10,11.66c-1.31,1.62-3.14,2.79-6.42,2.79-4.39,0-7.01-4.32-7.01-7.24M277.73,231.83c0-2.93,1.89-4.97,5.18-4.97,4.32,0,4.89,3.14,4.89,4.54,0,3.29-2.47,5.4-5.47,7.81-.66-.66-4.6-4.74-4.6-7.38M267.65,231.83c0,5.49,4.96,10.46,5.63,11.12-8.78,4.38-9.07,11.16-9.07,14.18,0,8.77,6.5,15.49,17.69,15.49,4.44,0,9.35-1.34,12.27-4.82l2.93,3.93h12.55l-8.11-10.67c4.01-4.88,6.13-11.02,6.13-17.52h-10.08c0,3-.58,7.24-2.27,9.79l-6.88-8.55c1.24-.81,9.13-5.84,9.13-13.37,0-8.19-7.32-11.54-14.55-11.54-13.08,0-15.42,8.54-15.42,11.97M177.13,212.17h238.57c-13.24,53.57-61.69,93.41-119.28,93.41s-106.05-39.84-119.28-93.41M296.95,141.58l19.97,37.57c6.98,12.87,11.21,20.65,17.21,24.63h-82.06l44.89-62.2h-.02ZM173.54,182.7c0-67.75,55.12-122.85,122.87-122.85s122.85,55.11,122.85,122.85c0,7.18-.64,14.23-1.8,21.07h-52.03c1.8-.72,3.34-1.4,4.56-2l-4.09-17.72c-1.48,1.19-4.13,3.13-9.01,3.55-4.94.41-8.74-2.88-11.86-8.77-3.83-7.29-41.03-75.46-41.03-75.46-9.99-19.84-18.56-28.91-33.84-27.1-4.86.56-11.7,2.27-16.21,4.21l3.26,20.22c1.62-1.25,4.45-2.64,8.45-3.11,9.19-1.1,17.34,13.04,18.25,20.87l-60.56,85.33h-48c-1.19-6.85-1.81-13.89-1.81-21.07M165.16,182.7c0,72.37,58.89,131.24,131.25,131.24s131.24-58.87,131.24-131.24-58.87-131.24-131.24-131.24-131.25,58.87-131.25,131.24h0Z"/>
    </clipPath>
  </defs>
  <path class="st2" d="M39.06,354.77h14.33c8.14,0,13.68,3.69,13.68,12.15,0,6.01-3.75,10.05-8.87,10.84v.18c1.71.26,3.6,1.05,5.05,5.35l5.99,17.58h-8.94l-4.54-14.99c-1.1-3.64-3.28-4.82-6.37-4.82h-1.89v19.82h-8.43M50.9,374.87c4.47,0,7.49-2.33,7.49-7.01,0-5.28-2.76-6.6-7.49-6.6h-3.42v13.63h3.42v-.02Z"/>
  <path class="st2" d="M74.89,351.33h8.14v19.9h.21c1.45-2.12,3.34-4.89,8.4-4.89,7.7,0,9.99,5.76,9.99,12.63v21.94h-8.14v-20.42c0-5.21-1.31-7.4-4.68-7.4-4.25,0-5.78,3.63-5.78,7.99v19.82h-8.14"/>
  <path class="st2" d="M133.75,399.25c-1.71.73-5.26,2.18-10.12,2.18-10.92,0-15.66-7.87-15.66-17.05,0-10.19,5.34-18.05,13.95-18.05,7.27,0,13.52,4.3,13.52,18.19v1.57h-19.59c0,5.82,2.32,9.33,8.62,9.33,5.02,0,7.38-1.52,8.87-2.65M127.57,380.95c0-6.02-1.98-9.07-5.66-9.07-4.28,0-6.07,4.56-6.07,9.07h11.73Z"/>
  <path class="st2" d="M142.06,352.41h8.4v8.05h-8.4v-8.05ZM142.19,366.86h8.14v34.02h-8.14v-34.02Z"/>
  <path class="st2" d="M158.33,372.48c0-2.12-.06-4.09-.26-5.61h7.64c.06,1.71.26,3.49.26,5.21h.14c1.19-2.04,3.48-5.76,9.01-5.76,7.68,0,9.99,5.76,9.99,12.63v21.94h-8.14v-20.42c0-5.21-1.31-7.4-4.68-7.4-4.27,0-5.78,3.63-5.78,7.99v19.82h-8.16"/>
  <path class="st2" d="M192.68,351.33h8.17v19.9h.18c1.45-2.12,3.35-4.89,8.4-4.89,7.68,0,10,5.76,10,12.63v21.94h-8.14v-20.42c0-5.21-1.31-7.4-4.67-7.4-4.28,0-5.78,3.63-5.78,7.99v19.82h-8.17"/>
  <path class="st2" d="M240.7,366.33c6.91,0,14.87,3.64,14.87,17.52s-7.96,17.58-14.87,17.58-14.91-3.31-14.91-17.58,8.02-17.52,14.91-17.52M240.7,395.61c5.26,0,6.43-6.08,6.43-11.77s-1.19-11.7-6.43-11.7-6.51,6.02-6.51,11.7,1.27,11.77,6.51,11.77"/>
  <rect class="st2" x="262.44" y="351.33" width="8.16" height="49.57"/>
  <path class="st2" d="M306.31,351.33v43.75c0,2.44.08,4.56.26,5.82h-7.62c-.14-.99-.26-2.96-.26-5.29h-.21c-1.31,2.91-3.74,5.82-9,5.82-8.43,0-11.92-8.07-11.92-17.52,0-11.1,4.41-17.58,11.71-17.58,4.86,0,7.56,2.78,8.74,5.43h.14v-20.42M291.73,395.42c4.79,0,6.43-5.21,6.43-11.63s-1.83-11.44-6.3-11.44-6.11,4.44-6.11,11.24c0,7.85,1.27,11.82,5.99,11.82"/>
  <path class="st2" d="M356.29,396.66c-2.78,2.85-5.14,4.89-10.98,4.89-10.32,0-15.06-6.34-15.06-13.42,0-8.05,5.6-11.82,8.55-13.27-2.3-2.85-4.88-5.47-4.88-10.25,0-4.3,3.35-10.51,12.58-10.51,8.48,0,11.63,5.43,11.63,10.05,0,6.21-5.32,9.99-8.48,12.15l7.23,9.45c1.97-3.03,2.5-7.21,2.5-10.51h7.38c0,4.76-1.52,11.7-5.46,16.39l7.23,9.26h-8.94M343.21,379.69c-2.52,1.57-4.8,3.83-4.8,8.13,0,5.02,4.21,7.52,7.23,7.52s5.26-1.52,6.83-3.49l-9.26-12.17v.02ZM346.1,359.27c-2.84,0-5.06,1.97-5.06,5.02,0,3.39,2.5,5.82,4.21,7.73,2.58-1.71,5.78-4.28,5.78-8.13,0-2.96-2.1-4.62-4.91-4.62"/>
  <polyline class="st2" points="428.08 362.44 427.94 362.44 416.44 400.9 410.45 400.9 399.47 362.44 399.35 362.44 399.35 400.9 391.71 400.9 391.71 354.77 404.28 354.77 413.74 389.2 413.87 389.2 423.53 354.77 435.7 354.77 435.7 400.9 428.08 400.9"/>
  <path class="st2" d="M445.9,368.85c2.32-1.05,5.52-2.52,10.72-2.52,10.51,0,12.95,5.15,12.95,13.68v14.87c0,2.45.26,4.7.47,6.02h-7.38c-.4-1.33-.46-2.96-.46-4.62h-.14c-2.04,2.76-4.62,5.14-9.48,5.14-5.26,0-10.12-3.63-10.12-9.99,0-9.26,7.49-11.56,17.81-11.56h1.65v-1.25c0-3.37-1.65-6.48-6.33-6.48-4.07,0-7.68,1.98-9.27,3.29M461.96,384.25h-.73c-6.97,0-11.12,1.45-11.12,6.4,0,3.11,2.04,5.21,5.2,5.21,4.86,0,6.65-3.61,6.65-9.7v-1.92h0Z"/>
  <path class="st2" d="M477.21,351.33h8.16v19.9h.18c1.45-2.12,3.37-4.89,8.43-4.89,7.68,0,9.99,5.76,9.99,12.63v21.94h-8.14v-20.42c0-5.21-1.31-7.4-4.68-7.4-4.27,0-5.78,3.63-5.78,7.99v19.82h-8.16"/>
  <rect class="st2" x="511.97" y="351.33" width="8.14" height="49.57"/>
  <path class="st2" d="M529.63,368.85c2.32-1.05,5.54-2.52,10.72-2.52,10.52,0,12.96,5.15,12.96,13.68v14.87c0,2.45.24,4.7.46,6.02h-7.36c-.41-1.33-.47-2.96-.47-4.62h-.14c-2.04,2.76-4.6,5.14-9.45,5.14-5.28,0-10.14-3.63-10.14-9.99,0-9.26,7.49-11.56,17.81-11.56h1.65v-1.25c0-3.37-1.65-6.48-6.3-6.48-4.09,0-7.7,1.98-9.27,3.29M545.67,384.25h-.73c-6.97,0-11.1,1.45-11.1,6.4,0,3.11,2.03,5.21,5.18,5.21,4.86,0,6.65-3.61,6.65-9.7v-1.92h0Z"/>
  <path class="st2" d="M206.05,461.77c.96.63,3.08,1.65,5.69,1.65,2.13,0,4.06-1.2,4.06-3.89,0-1.94-1.11-2.78-3.49-4.09l-2.5-1.39c-2.65-1.46-4.38-3.58-4.38-7.04,0-4.82,3.96-7.33,8.45-7.33,2.84,0,4.82.73,5.6.98l-.23,4.1c-1.19-.46-2.76-1.14-5.03-1.14-2.45,0-3.72,1.31-3.72,3.16,0,2.01,1.36,2.78,2.84,3.63l2.9,1.62c3.13,1.78,4.64,3.48,4.64,7.24,0,5.47-3.87,8.08-8.98,8.08-2.68,0-4.77-.38-6.1-1.19"/>
  <path class="st2" d="M226.42,438.68h4.91v4.71h-4.91v-4.71ZM226.5,447.11h4.77v19.84h-4.77v-19.84Z"/>
  <path class="st2" d="M237.16,450.39c0-1.22-.05-2.38-.15-3.26h4.45c.05.99.15,2.04.15,3.03h.08c.69-1.2,2.04-3.35,5.25-3.35,4.51,0,5.84,3.35,5.84,7.35v12.79h-4.74v-11.91c0-3.03-.76-4.3-2.74-4.3-2.49,0-3.37,2.12-3.37,4.65v11.56h-4.77"/>
  <path class="st2" d="M271.63,466.45c-1.1.43-2.76.81-4.68.81-6.53,0-9.29-4.57-9.29-10.22s2.93-10.25,9.55-10.25c1.51,0,3.26.47,4.15.81l-.26,3.77c-.84-.41-2.04-.96-3.34-.96-3.6,0-5.18,2.44-5.18,6.66,0,3.69,1.77,6.54,5.4,6.54,1.14,0,2.73-.52,3.39-.96"/>
  <path class="st2" d="M290.19,466.01c-.99.41-3.05,1.27-5.89,1.27-6.37,0-9.15-4.57-9.15-9.93,0-5.95,3.1-10.52,8.14-10.52,4.24,0,7.88,2.52,7.88,10.6v.91h-11.44c0,3.4,1.36,5.43,5.03,5.43,2.91,0,4.3-.88,5.18-1.54M286.59,455.32c0-3.51-1.14-5.28-3.28-5.28-2.5,0-3.55,2.65-3.55,5.28h6.83,0Z"/>
  <polyline class="st2" points="313.96 445.73 310.41 449.08 308.14 445.77 314.66 440.07 318.73 440.07 318.73 466.95 313.96 466.95"/>
  <path class="st2" d="M331.31,453.72l1.33-.66c-2.65-1.31-4.25-3.11-4.25-6.25,0-4.57,3.23-7.14,7.76-7.14,3.92,0,7.59,2.27,7.59,6.54,0,2.96-1.77,5.21-4.38,6.51l.99.55c2.3,1.24,4.15,3.32,4.15,6.43,0,5.15-3.74,7.61-8.52,7.61-5.18,0-8.37-3.22-8.37-7.47,0-2.96,1.62-5.15,3.71-6.16M336.06,463.84c2.42,0,3.67-1.71,3.67-4.16,0-2.09-.84-3.16-2.94-4.39l-.99-.63-.91.66c-1.69,1.2-2.5,2.45-2.5,4.51,0,2.3,1.3,4.01,3.67,4.01M336.39,451.34c1.24-1.04,2.9-2.3,2.9-4.65,0-2.2-.91-3.51-3.16-3.51-1.88,0-3.31,1.39-3.31,3.71s1.84,3.43,3.57,4.47"/>
  <path class="st2" d="M352.39,453.72l1.36-.66c-2.65-1.31-4.25-3.11-4.25-6.25,0-4.57,3.23-7.14,7.75-7.14,3.9,0,7.59,2.27,7.59,6.54,0,2.96-1.77,5.21-4.38,6.51l.99.55c2.29,1.24,4.15,3.32,4.15,6.43,0,5.15-3.74,7.61-8.52,7.61-5.18,0-8.37-3.22-8.37-7.47,0-2.96,1.62-5.15,3.67-6.16M357.16,463.84c2.42,0,3.67-1.71,3.67-4.16,0-2.09-.84-3.16-2.94-4.39l-.99-.63-.91.66c-1.69,1.2-2.5,2.45-2.5,4.51,0,2.3,1.3,4.01,3.67,4.01M357.49,451.34c1.24-1.04,2.9-2.3,2.9-4.65,0-2.2-.91-3.51-3.16-3.51-1.88,0-3.29,1.39-3.29,3.71s1.84,3.43,3.57,4.47"/>
  <polyline class="st2" points="381.24 443.99 370.65 443.99 370.65 440.07 385.86 440.07 385.86 444.39 377.82 466.95 372.53 466.95"/>
  <path class="st2" d="M444.39,259.55c5.06,0,9.19,4.13,9.19,9.21s-4.13,9.24-9.19,9.24-9.18-4.15-9.18-9.24,4.1-9.21,9.18-9.21M444.39,276.09c3.93,0,7.04-3.29,7.04-7.32s-3.1-7.32-7.04-7.32-7.04,3.28-7.04,7.32,3.1,7.32,7.04,7.32M443.84,269.78h-1.07v4.18h-1.98v-10.51h3.67c3.08,0,4.18.82,4.18,3.13,0,1.8-.99,2.85-2.7,3.1l2.79,4.27h-2.24l-2.65-4.18M442.78,268.07h1.98c1.14,0,1.88-.24,1.88-1.56,0-1.14-.7-1.37-1.92-1.37h-1.95v2.93"/>
  <polyline class="st2" points="-1 418.88 593.84 418.94 593.84 417.09 -1 417.06"/>
  <g>
    <path class="st2" d="M235.8,229.36h3.66c6.43,0,7.09,4.3,7.09,6.42,0,3.66-2.42,6.71-7.01,6.71h-3.74v-13.13ZM224.26,220.73v51h11.97v-20.6c4.39,0,6.01,0,7.97,6.94l3.93,13.66h12.58l-5.25-16.67c-1.92-6.05-3.39-8.11-7.09-8.54v-.15c9.85-1.97,10.16-10.38,10.16-12.5,0-9.42-7.17-13.16-15.58-13.16h-18.69v.02ZM351.32,220.73l-8.9,32.8h-.15l-8.26-32.8h-18.05v51h10.96v-40.33h.15l11.04,40.33h7.9l11.47-40.33h.14v40.33h10.98v-51h-17.26,0ZM275.46,257.03c0-3.81,1.89-5.55,3.43-7.23l10,11.66c-1.31,1.62-3.14,2.79-6.42,2.79-4.39,0-7.01-4.32-7.01-7.24M277.73,231.83c0-2.93,1.89-4.97,5.18-4.97,4.32,0,4.89,3.14,4.89,4.54,0,3.29-2.47,5.4-5.47,7.81-.66-.66-4.6-4.74-4.6-7.38M267.65,231.83c0,5.49,4.96,10.46,5.63,11.12-8.78,4.38-9.07,11.16-9.07,14.18,0,8.77,6.5,15.49,17.69,15.49,4.44,0,9.35-1.34,12.27-4.82l2.93,3.93h12.55l-8.11-10.67c4.01-4.88,6.13-11.02,6.13-17.52h-10.08c0,3-.58,7.24-2.27,9.79l-6.88-8.55c1.24-.81,9.13-5.84,9.13-13.37,0-8.19-7.32-11.54-14.55-11.54-13.08,0-15.42,8.54-15.42,11.97M177.13,212.17h238.57c-13.24,53.57-61.69,93.41-119.28,93.41s-106.05-39.84-119.28-93.41M296.95,141.58l19.97,37.57c6.98,12.87,11.21,20.65,17.21,24.63h-82.06l44.89-62.2h-.02ZM173.54,182.7c0-67.75,55.12-122.85,122.87-122.85s122.85,55.11,122.85,122.85c0,7.18-.64,14.23-1.8,21.07h-52.03c1.8-.72,3.34-1.4,4.56-2l-4.09-17.72c-1.48,1.19-4.13,3.13-9.01,3.55-4.94.41-8.74-2.88-11.86-8.77-3.83-7.29-41.03-75.46-41.03-75.46-9.99-19.84-18.56-28.91-33.84-27.1-4.86.56-11.7,2.27-16.21,4.21l3.26,20.22c1.62-1.25,4.45-2.64,8.45-3.11,9.19-1.1,17.34,13.04,18.25,20.87l-60.56,85.33h-48c-1.19-6.85-1.81-13.89-1.81-21.07M165.16,182.7c0,72.37,58.89,131.24,131.25,131.24s131.24-58.87,131.24-131.24-58.87-131.24-131.24-131.24-131.25,58.87-131.25,131.24"/>
    <g class="st3">
      <path class="st2" d="M235.8,229.36h3.66c6.43,0,7.09,4.3,7.09,6.42,0,3.66-2.42,6.71-7.01,6.71h-3.74M224.26,220.73v51h11.97v-20.6c4.39,0,6.01,0,7.97,6.94l3.93,13.66h12.58l-5.25-16.67c-1.92-6.05-3.39-8.11-7.09-8.54v-.15c9.85-1.97,10.16-10.38,10.16-12.5,0-9.42-7.17-13.16-15.58-13.16h-18.69v.02ZM351.32,220.73l-8.9,32.8h-.15l-8.26-32.8h-18.05v51h10.96v-40.33h.15l11.04,40.33h7.9l11.47-40.33h.14v40.33h10.98v-51h-17.26,0ZM275.46,257.03c0-3.81,1.89-5.55,3.43-7.23l10,11.66c-1.31,1.62-3.14,2.79-6.42,2.79-4.39,0-7.01-4.32-7.01-7.24M277.73,231.83c0-2.93,1.89-4.97,5.18-4.97,4.32,0,4.89,3.14,4.89,4.54,0,3.29-2.47,5.4-5.47,7.81-.66-.66-4.6-4.74-4.6-7.38M267.65,231.83c0,5.49,4.96,10.46,5.63,11.12-8.78,4.38-9.07,11.16-9.07,14.18,0,8.77,6.5,15.49,17.69,15.49,4.44,0,9.35-1.34,12.27-4.82l2.93,3.93h12.55l-8.11-10.67c4.01-4.88,6.13-11.02,6.13-17.52h-10.08c0,3-.58,7.24-2.27,9.79l-6.88-8.55c1.24-.81,9.13-5.84,9.13-13.37,0-8.19-7.32-11.54-14.55-11.54-13.08,0-15.42,8.54-15.42,11.97M177.13,212.17h238.57c-13.24,53.57-61.69,93.41-119.28,93.41s-106.05-39.84-119.28-93.41M296.95,141.58l19.97,37.57c6.98,12.87,11.21,20.65,17.21,24.63h-82.06l44.89-62.2h-.02ZM173.54,182.7c0-67.75,55.12-122.85,122.87-122.85s122.85,55.11,122.85,122.85c0,7.18-.64,14.23-1.8,21.07h-52.03c1.8-.72,3.34-1.4,4.56-2l-4.09-17.72c-1.48,1.19-4.13,3.13-9.01,3.55-4.94.41-8.74-2.88-11.86-8.77-3.83-7.29-41.03-75.46-41.03-75.46-9.99-19.84-18.56-28.91-33.84-27.1-4.86.56-11.7,2.27-16.21,4.21l3.26,20.22c1.62-1.25,4.45-2.64,8.45-3.11,9.19-1.1,17.34,13.04,18.25,20.87l-60.56,85.33h-48c-1.19-6.85-1.81-13.89-1.81-21.07M165.16,182.7c0,72.37,58.89,131.24,131.25,131.24s131.24-58.87,131.24-131.24-58.87-131.24-131.24-131.24-131.25,58.87-131.25,131.24"/>
    </g>
  </g>
  <circle class="st1" cx="296.41" cy="182.7" r="140.02"/>
</svg>