<svg width="103" height="28" viewBox="0 0 103 28" fill="none" xmlns="http://www.w3.org/2000/svg">
  <g clip-path="url(#clip0_1499_4994)">
    <path d="M3.46061 27.4464V4.38584C3.46061 4.08169 3.22424 3.83837 2.92727 3.83837H0V0H14.8909V3.83837H8.78788C8.49091 3.83837 8.25455 4.08169 8.25455 4.38584V27.4464H3.46061Z" fill="#004D72"/>
    <path d="M17.7215 9.77539C16.9639 9.77539 16.4184 9.96396 16.0427 10.3472C15.3942 11.0224 15.3942 12.1599 15.3942 13.3704V14.0152C15.3942 14.3194 15.6366 14.5688 15.9275 14.5688H19.7215C20.0184 14.5688 20.2548 14.3194 20.2548 14.0152V12.6466C20.2184 10.4384 19.6245 9.76931 17.7154 9.76931M18.2851 27.9939C15.7518 27.9939 13.9518 27.3978 12.7881 26.169C11.479 24.7943 10.8972 22.6348 10.9518 19.3622V13.8997C10.8427 11.4056 11.4063 9.48949 12.6184 8.17556C13.7699 6.92855 15.4608 6.302 17.6427 6.302C24.1821 6.302 24.6912 10.0491 24.6912 15.3413V18.0361H15.9275C15.6305 18.0361 15.3942 18.2794 15.3942 18.5896V21.1749C15.4305 23.9609 16.4366 24.5327 17.9336 24.5327C18.5942 24.5327 19.0912 24.3502 19.4487 23.967C19.9942 23.3891 20.2245 22.355 20.1881 20.6214H24.6245C24.7033 23.1519 24.1639 25.0559 23.0124 26.2907C21.9578 27.4221 20.3639 28 18.2851 28" fill="#004D72"/>
    <path d="M35.0665 16.8742C34.9634 16.8742 34.8665 16.9047 34.7755 16.9655L34.2422 17.3183C33.3816 17.884 32.4907 18.4741 31.6725 19.1736C30.9331 19.8184 30.8483 20.962 30.8483 21.765C30.8483 23.0546 31.1089 24.5327 33.1392 24.5327C35.5634 24.5327 35.5755 21.9657 35.5877 19.8975C35.5877 19.5203 35.5877 19.1736 35.6058 18.8573V17.4217C35.6058 17.221 35.4968 17.0324 35.3271 16.9351C35.2483 16.8925 35.1634 16.8682 35.0725 16.8682M31.7089 27.9939C28.0483 27.9939 26.418 26.1082 26.418 21.8684C26.418 17.4035 29.3574 16.1625 32.7574 14.733L33.2543 14.5201C34.9937 13.7719 36.0604 12.8716 35.6058 10.9251C35.3816 9.95788 34.6301 9.76931 33.321 9.76931C32.424 9.76931 31.7937 9.97613 31.3937 10.3959C30.9574 10.8582 30.7695 11.576 30.7816 12.7926H26.5634C26.5574 10.5418 27.0119 9.01502 27.9877 7.99916C29.0846 6.85555 30.8907 6.302 33.5028 6.302C36.1149 6.302 37.7937 6.84339 38.8483 7.95658C39.9755 9.15492 40.0907 10.846 40.0483 12.3485V24.6361C40.0543 25.6216 40.0543 26.0596 40.1331 27.4404H35.9998C35.9998 27.0815 36.018 26.8808 35.9755 26.5584C35.9452 26.3455 35.7998 26.163 35.5998 26.1021C35.5513 26.0839 35.4968 26.0778 35.4483 26.0778C35.2968 26.0778 35.1452 26.1447 35.0422 26.2664C34.6665 26.7104 34.2907 27.0511 33.8786 27.3066C33.1755 27.7628 32.4543 27.9939 31.7149 27.9939" fill="#004D72"/>
    <path d="M60.8667 27.4465V13.5043C60.8667 11.6977 60.703 9.77543 58.7151 9.77543C58.6606 9.77543 58.6 9.77543 58.5394 9.77543C56.4788 9.89101 56.0788 11.3631 56.0788 13.8693V27.4465H51.6424V13.2427C51.6424 11.3448 51.4667 9.77543 49.3212 9.77543H49.2485C46.8485 9.81801 46.8485 11.8741 46.8485 13.8693V27.4465H42.4121V6.86168H46.8485V7.49431C46.8485 7.72546 46.9879 7.93228 47.2 8.01136C47.2606 8.03569 47.3212 8.04786 47.3818 8.04786C47.5333 8.04786 47.6848 7.98095 47.7879 7.85321C48.8242 6.59403 50.297 6.36896 51.4667 6.31421H51.5879C53.0303 6.31421 54.7818 6.89209 55.4242 8.1756C55.5091 8.34593 55.6727 8.4615 55.8606 8.47367C55.8727 8.47367 55.8848 8.47367 55.897 8.47367C56.0667 8.47367 56.2303 8.38851 56.3333 8.24252C57.2303 6.94684 58.5879 6.31421 60.4788 6.31421C64.0424 6.31421 65.3091 8.63791 65.3091 10.6331V27.4526H60.8727L60.8667 27.4465Z" fill="#004D72"/>
    <path d="M67.8786 27.4464V4.38584C67.8786 4.08169 67.6422 3.83837 67.3452 3.83837H64.418V0H79.3089V3.83837H73.2119C72.9149 3.83837 72.6786 4.08169 72.6786 4.38584V27.4464H67.8846H67.8786Z" fill="#004D72"/>
    <path d="M81.9275 9.77541C81.176 9.77541 80.6245 9.96398 80.2487 10.3533C79.6002 11.0285 79.6002 12.166 79.6002 13.3765V14.0213C79.6002 14.3255 79.8427 14.5749 80.1336 14.5749H83.9275C84.2245 14.5749 84.4608 14.3255 84.4608 14.0213V12.6527C84.4245 10.4445 83.8305 9.77541 81.9214 9.77541M82.4911 28C79.9578 28 78.1578 27.4039 76.9942 26.1751C75.6851 24.8004 75.1033 22.6409 75.1578 19.3683V13.9058C75.0487 11.4117 75.6124 9.49559 76.8245 8.18167C77.976 6.94074 79.6669 6.30811 81.8487 6.30811C88.3881 6.30811 88.8972 10.0552 88.8972 15.3474V18.0422H80.1336C79.8366 18.0422 79.6002 18.2855 79.6002 18.5957V21.181C79.6366 23.967 80.6427 24.5388 82.1396 24.5388C82.8002 24.5388 83.2972 24.3563 83.6548 23.9731C84.2002 23.3952 84.4305 22.3611 84.3942 20.6275H88.8305C88.9093 23.158 88.3699 25.062 87.2184 26.2968C86.1639 27.4282 84.5699 28.0061 82.4911 28.0061" fill="#004D72"/>
    <path d="M98.5638 14.4715H103V12.3181C103.018 10.5905 102.479 9.06976 101.479 8.02349C100.388 6.87989 98.7941 6.302 96.7395 6.302C94.685 6.302 93.2486 6.81297 92.2365 7.85925C91.085 9.0576 90.5335 10.919 90.5516 13.5651V20.3172C90.4607 23.0667 91.0122 25.0924 92.1941 26.3515C93.2122 27.4343 94.7456 27.9879 96.7456 27.9879C101.018 27.9879 103.006 25.8771 103.006 21.3452V20.6761H98.5698V21.327C98.5698 21.327 98.5698 21.3574 98.5698 21.3756L98.5516 21.6129C98.4244 23.1397 98.3153 24.4597 96.9032 24.5206C96.8971 24.5206 96.891 24.5206 96.8789 24.5206C96.8547 24.5206 96.8304 24.5206 96.8062 24.5206C95.2668 24.3077 94.8971 23.2614 94.9941 19.4352V14.5323C94.9698 12.7196 94.9456 11.0102 95.6971 10.2255C95.988 9.92138 96.3638 9.77539 96.8547 9.77539C97.885 9.77539 98.4971 10.4324 98.5698 11.655V14.4654L98.5638 14.4715Z" fill="#004D72"/>
  </g>
  <defs>
    <clipPath id="clip0_1499_4994">
      <rect width="103" height="28" fill="white"/>
    </clipPath>
  </defs>
</svg>
