<?xml version="1.0" encoding="UTF-8"?>
<svg id="Layer_1" xmlns="http://www.w3.org/2000/svg" version="1.1" viewBox="0 0 195.1 64.6">
  <!-- Generator: Adobe Illustrator 30.0.0, SVG Export Plug-In . SVG Version: 2.1.1 Build 123)  -->
  <defs>
    <style>
      .st0 {
        fill: #013a5c;
      }

      .st1 {
        fill: #fff282;
      }
    </style>
  </defs>
  <rect class="st1" x="7.18" y="21.88" width="53.17" height="21.8"/>
  <path class="st0" d="M32.4,0C14.5,0,0,14.5,0,32.3s14.5,32.3,32.4,32.3,32.4-14.5,32.4-32.3S50.3,0,32.4,0ZM58.5,28h-3.2v6.6c0,2.4-.8,4.4-2.2,5.8-1.4,1.4-3.2,2.1-5,2.1h0c-.4,0-.8,0-1.1-.1h-.1c-.7-.1-1.4-.4-2-.7h0l-.3-.1h0c-.5-.3-1-.7-1.4-1.1-1.4-1.4-2.2-3.4-2.2-5.9v-2.5h0v-.2c-.1-1.4-.5-2.3-1.1-2.9-.9-.7-1.7-1-2.5-1s-1.6.3-2.2.9c-.6.6-1,1.5-1,3v7.7h0v2.2c0,.4-.3.7-.7.7h-2.6c-.4,0-.7-.3-.7-.7v-2.2h0v-7.7c0-1.5-.5-2.4-1-3-.6-.6-1.3-.9-2.2-.9-.8,0-1.6.3-2.2.9-.5.5-.9,1.2-1,2.2-.1.3-.1.7-.1,1v2.4c0,2.4-.8,4.5-2.2,5.8-1.4,1.4-3.2,2.1-5,2.1h-.1c-1.8,0-3.6-.7-5-2.1-1.4-1.4-2.2-3.4-2.2-5.8v-9.8c0-.4.3-.7.7-.7h2.6c.4,0,.7.3.7.7v2.2h0c0,1.9.1,6,.1,7.3v.3c0,1.6.5,2.5,1.1,3.1s1.4.9,2.2.9,1.6-.3,2.2-.9c.6-.6,1.1-1.5,1.1-3.1h0v-3.2c.2-2.1,1-3.9,2.2-5.1.7-.7,1.5-1.2,2.3-1.5.9-.3,1.8-.5,2.7-.5,1.8,0,3.6.7,4.9,2,.1.1.2.2.2.2.1-.1.1-.2.2-.2,1.4-1.4,3.2-2,4.9-2h0c1.8,0,3.6.7,5,2.1,1.3,1.3,2.1,3.1,2.2,5.3v.1h0v2.8c0,1.1.2,1.9.6,2.5l.1.1c.1.2.3.3.4.5.1.1.3.2.4.3.1.1.2.1.3.2.1,0,.2.1.2.1.1,0,.2.1.3.1.3.1.7.2,1.1.2.8,0,1.6-.3,2.2-.9s1.1-1.5,1.1-3.1v-6.5h-3.2c-.4,0-.7-.3-.7-.7v-2.6c0-.4.3-.7.7-.7h10.4c.4,0,.7.3.7.7v2.6c0,.4-.3.7-.6.7h0Z"/>
  <path class="st0" d="M93.7,35.3c0,4.2-2.8,6.1-6.8,6.1s-6.8-1.9-6.8-6.1v-9.6h4.1v8.9c0,2,.6,3.8,2.7,3.8s2.7-1.7,2.7-3.8v-8.9h4.1v9.6h0Z"/>
  <path class="st0" d="M98,25.7h4.1v12.4h6.4v3.1h-10.5v-15.5Z"/>
  <path class="st0" d="M111.8,25.7h6.5l3.3,10.3h0l3.5-10.3h6.3v15.5h-4l.1-11.9h0l-4,11.9h-3.8l-3.8-11.9h0l.1,11.9h-4l-.2-15.5h0Z"/>
  <path class="st0" d="M140.3,25.7h5.1l6,15.5h-4.5l-1.2-3.3h-5.8l-1.2,3.3h-4.2l5.8-15.5ZM142.9,28.9h0l-2,6.1h3.9l-1.9-6.1h0Z"/>
  <path class="st0" d="M155.7,28.7h-3.8v-3.1h11.8v3.1h-3.8v12.4h-4.1v-12.4h-.1Z"/>
  <path class="st0" d="M166.9,25.7h10.9v2.9h-6.8v3.2h6.4v2.9h-6.4v3.5h7.1v2.9h-11.2v-15.4h0Z"/>
  <path class="st0" d="M195.1,40.8c-1.2.3-2.5.6-4.6.6-4.1,0-8.9-2.1-8.9-7.9,0-5.4,3.8-8.1,8.9-8.1,1.6,0,3.1.4,4.6.8l-.3,3.4c-1.3-.7-2.6-1.1-4-1.1-2.9,0-4.9,2.1-4.9,5s2.2,4.9,5.2,4.9c1.4,0,2.7-.4,3.9-.8l.1,3.2Z"/>
</svg>