<?xml version="1.0" encoding="UTF-8"?>
<svg id="Layer_1" xmlns="http://www.w3.org/2000/svg" version="1.1" viewBox="0 0 208 48">
  <!-- Generator: Adobe Illustrator 30.0.0, SVG Export Plug-In . SVG Version: 2.1.1 Build 123)  -->
  <defs>
    <style>
      .st0 {
        fill: #fcc871;
      }

      .st1 {
        fill: #fcc973;
      }

      .st2 {
        fill: #fed798;
      }

      .st3 {
        fill: #f9ae1e;
      }

      .st4 {
        fill: #177c51;
      }
    </style>
  </defs>
  <path class="st4" d="M16,30.74c.74.31,1.36.84,1.8,1.51.43.67.66,1.46.64,2.26,0,2.74-2,4.12-5.99,4.12H0v-15.27h12.57c1.37-.08,2.73.33,3.83,1.16.45.37.81.84,1.06,1.38.24.53.36,1.12.33,1.7,0,.64-.17,1.26-.49,1.81-.32.55-.78,1.01-1.33,1.32M12.62,29.57c.59.04,1.17-.14,1.65-.49.2-.15.36-.35.47-.58.11-.23.16-.48.15-.73,0-1.16-.72-1.74-2.17-1.74H2.98v3.53h9.64ZM12.42,35.93c.76.04,1.52-.12,2.19-.47.24-.12.43-.31.57-.53.14-.23.21-.49.21-.75,0-1.29-.91-1.94-2.73-1.94H2.98v3.7h9.44Z"/>
  <path class="st4" d="M41.38,38.63h-3.39l-4.05-5.61h-7.57v5.61h-2.98v-15.27h12.35c1.41-.07,2.8.4,3.87,1.31.48.45.86,1,1.11,1.6.25.61.36,1.26.33,1.92,0,2.54-1.27,4.08-3.8,4.63l4.13,5.8ZM35.3,30.34c1.8,0,2.7-.7,2.7-2.09,0-1.47-.96-2.21-2.89-2.21h-8.74v4.3h8.93Z"/>
  <path class="st4" d="M44.8,38.63l8.44-15.28h3.43l8.44,15.28h-3.29l-6.87-12.68-6.87,12.68h-3.29Z"/>
  <path class="st4" d="M84.69,23.35l-8.45,15.28h-3.43l-8.45-15.28h3.29l6.87,12.68,6.87-12.68h3.29Z"/>
  <path class="st4" d="M125.91,38.63h-4.45l-10.38-12.74v12.74h-2.98v-15.28h4.45l10.39,12.75v-12.75h2.98v15.28Z"/>
  <path class="st4" d="M145.83,26.04h-6.36v12.59h-2.98v-12.59h-6.32v-2.69h15.66v2.69Z"/>
  <path class="st4" d="M166.31,38.63h-16.45v-15.28h15.88v2.69h-12.89v3.3h8.97v2.69h-8.97v3.92h13.47v2.69Z"/>
  <path class="st4" d="M84.05,38.63l8.44-15.28h3.43l8.44,15.28h-3.29l-6.87-12.68-6.87,12.68h-3.29Z"/>
  <path class="st4" d="M7.24,2.36c-.62-.59-1.43-.94-2.28-1-1.22,0-3.02.96-3.02,4.38,0,2.23,1.07,3.83,2.32,3.83.9,0,1.49-.83,1.49-2.01v-.96h-2.02v-1.34h3.81v5.53h-1.16l-.65-.79c-.22.3-.5.55-.83.71-.33.17-.69.26-1.06.25C1.52,10.96.14,8.42.14,5.64S1.61,0,4.92,0c.81,0,1.6.2,2.32.58v1.78Z"/>
  <path class="st4" d="M13.83,4.99c-.27-.12-.57-.19-.87-.19-.26,0-.51.07-.74.17s-.44.26-.61.45-.3.41-.39.65c-.08.24-.12.5-.1.75v3.97h-1.69V3.52h1.55l.13,1.05h.04c.16-.35.41-.65.73-.87.32-.21.7-.33,1.08-.34.3,0,.59.05.87.16v1.47Z"/>
  <path class="st4" d="M16.99,3.52v4.92c-.01.15.01.31.07.45.05.14.14.27.25.38.11.11.24.19.39.24s.3.07.45.06c1.03,0,1.74-.94,1.74-2.27v-3.78h1.69v7.27h-1.62l-.08-.93c-.25.34-.58.62-.96.81s-.8.29-1.23.28c-.32.03-.65,0-.95-.11-.3-.11-.58-.28-.81-.51-.23-.23-.4-.5-.51-.81-.11-.3-.15-.63-.12-.95V3.52h1.68Z"/>
  <path class="st4" d="M25.42,14.18h-1.69V3.52h1.53l.16.98c.24-.36.56-.65.94-.85.38-.2.8-.31,1.23-.31,1.82,0,2.98,1.66,2.98,3.68,0,2.18-1.36,3.91-3.31,3.91-.67,0-1.32-.23-1.84-.66v3.91ZM25.42,8.79c.16.25.38.45.64.6.26.15.54.23.84.25.78,0,1.93-.63,1.93-2.55,0-1.28-.58-2.4-1.69-2.4s-1.74,1.03-1.74,2.22l.02,1.89Z"/>
  <path class="st4" d="M39.15,7.16c0,2.25-1.44,3.79-3.62,3.79-2.32,0-3.61-1.69-3.61-3.77s1.29-3.82,3.53-3.82c2.52,0,3.7,1.78,3.7,3.8ZM33.65,7.25c0,1.24.64,2.45,1.88,2.45,1.09,0,1.9-.94,1.9-2.59s-.83-2.52-1.75-2.52c-1.86,0-1.99,2.08-1.99,2.66"/>
  <path class="st1" d="M189.69,14.46h-17.17l8.52,15.41h3.46l8.52-15.41h-3.32Z"/>
  <path class="st3" d="M199.29,14.46h-3.73l-8.39,15.41h20.52l-8.39-15.41Z"/>
  <path class="st0" d="M195.58,48h3.73l8.4-15.41h-20.52l8.4,15.41Z"/>
  <path class="st2" d="M175.85,48h17.17l-8.52-15.41h-3.46l-8.52,15.41h3.32Z"/>
</svg>