<?xml version="1.0" encoding="UTF-8"?>
<svg id="Layer_1" xmlns="http://www.w3.org/2000/svg" version="1.1" viewBox="0 0 520.27 234.28">
  <!-- Generator: Adobe Illustrator 30.0.0, SVG Export Plug-In . SVG Version: 2.1.1 Build 123)  -->
  <defs>
    <style>
      .st0 {
        fill: #001a49;
      }
    </style>
  </defs>
  <path class="st0" d="M270.5,32.59c-23.35,0-44.46,9.57-59.62,25.02-1.04,1.06-2.05,2.16-3.03,3.28-11.43,12.95-18.92,29.47-20.55,47.69.13,1.47.19,2.96.19,4.49,0,2.36-.15,4.67-.43,6.94-.71,5.58-2.23,10.84-4.45,15.56-6.26,13.32-17.89,22.3-31.2,22.3h-28.92v-89.61h28.92c14.02,0,27.31,12.19,33.26,26.72,3.71-13.8,11.06-27.41,20.31-37.73-14.69-14.59-36.53-24.75-58.89-24.75h-65.19v162.75h65.19c21.3,0,40.7-8.18,55.2-21.59,1.59-1.46,3.12-3,4.59-4.59,11-11.89,18.45-27.06,20.79-43.88-.61-2.92-.93-5.96-.93-9.07,0-3.67.45-7.23,1.29-10.64.73-2.99,1.77-5.88,3.07-8.61,7.2-15.06,22.56-25.47,40.4-25.47,18.83,0,34.96,11.66,41.55,28.14,2.1-15.3,8.89-29.31,19.03-40.91-15.22-16.04-36.74-26.04-60.59-26.04M270.5,160.83c-18.4,0-34.19-11.08-41.07-26.93-3.48,14.64-10.7,27.85-20.62,38.54,15.27,16.72,37.27,27.2,61.69,27.2,14.84,0,28.8-3.88,40.88-10.68v-54.68c-6.95,15.63-22.64,26.55-40.88,26.55M415.88,67.2V31.56h-15.39v.06c-24.51.74-46.55,10.42-62.05,25.48-1.55,1.53-3.05,3.09-4.47,4.72-11.66,13.24-18.59,29.89-18.59,47.98,0,.83.02,2.48.02,2.48v83.6h40.48v-.13h.54v-44.2h59.34v-35.19h-60.31c.28-5.92,1.51-11.55,3.52-16.79,7.25-18.82,24.71-32.17,45.18-32.42v.05h11.73Z"/>
</svg>