<?xml version="1.0" encoding="UTF-8"?>
<svg id="Layer_1" xmlns="http://www.w3.org/2000/svg" version="1.1" viewBox="0 0 187.65 65.33">
  <!-- Generator: Adobe Illustrator 30.0.0, SVG Export Plug-In . SVG Version: 2.1.1 Build 123)  -->
  <defs>
    <style>
      .st0 {
        fill: #a32135;
      }

      .st1 {
        fill: #1d1d1b;
      }

      .st2 {
        fill: #fff;
      }
    </style>
  </defs>
  <path id="Path_358" class="st1" d="M30.1,63.02h.98c.07-.49.13-.99.2-1.48.21-1.54.4-3.09.59-4.62.16-1.29.31-2.58.46-3.87-1.11.35-2.22.71-3.31,1.09.32,2.98.69,5.96,1.08,8.88Z"/>
  <path id="Path_359" class="st1" d="M26.69,13.95l.15-.05c2.55-.93,5.18-1.78,7.82-2.51-.03-2.18-.12-5.21-.31-7.96h-7.49c-.01.25-.02.52-.03.83-.05,1.44-.1,3.52-.13,6.18-.01,1.08-.02,2.26-.01,3.52Z"/>
  <path id="Path_360" class="st1" d="M27.67,39.38c2-.71,4.06-1.37,6.13-1.97.04-.52.07-1.03.11-1.54.03-.48.06-.95.09-1.42.06-.87.11-1.74.16-2.6.01-.21.02-.41.04-.62v-.19c.03-.29.04-.57.06-.86l.02-.34c.02-.28.03-.56.04-.83-1.56.46-3.12.95-4.65,1.47-.43.15-.85.3-1.26.44l-.26.09-.52.19-.46.17c.15,2.65.31,5.34.51,8.01Z"/>
  <path id="Path_361" class="st0" d="M40.51,35.71c.73-.16,1.52-.31,2.34-.46h.03l.48-.08c1.22-.21,2.48-.39,3.7-.56l-11.36-2.12c-.04.67-.08,1.35-.13,2.03-.05.82-.11,1.63-.17,2.46.41-.11.83-.22,1.24-.33.94-.25,1.88-.48,2.81-.69.35-.09.71-.17,1.06-.25Z"/>
  <path id="Path_362" class="st0" d="M21.93,41.62c1.37-.58,2.78-1.15,4.21-1.68-.15-2.07-.29-4.16-.41-6.24-.03-.58-.07-1.17-.1-1.75-2.51.98-4.96,2.05-7.3,3.2-.17.09-.35.17-.52.26-.91.45-1.8.92-2.69,1.39-1.76.95-3.48,1.96-5.15,3.02l10.91,2.25c.34-.16.69-.3,1.03-.45Z"/>
  <path id="Path_363" class="st0" d="M55.1,17.82c.02-.08.04-.16.05-.24.23-1.09.39-2.19.47-3.3.1-1.26.07-2.53-.09-3.78-.06-.43-.13-.84-.22-1.23-3.14.26-6.34.66-9.5,1.21l-.58.1-.33.06c-1.43.26-2.76.52-4.05.81-1.58.35-3.23.75-4.9,1.21l-.29.08-.5.14c-.31.09-.62.18-.93.27-1.56.45-3.11.93-4.61,1.44l-.15.05h-.01c-.94.32-1.92.67-3,1.08l-.17.07-.59.22h-.03s-.43.18-.43.18l-.42.16c-.71.28-1.41.57-2.08.85l-.35.15c-2.12.91-4.2,1.88-6.22,2.94-.61.31-1.21.63-1.8.96-.6.32-1.18.65-1.76.98-.81.47-1.61.94-2.4,1.43-1.26.78-2.49,1.59-3.69,2.42-.26.18-.52.36-.78.55-.13,1.11-.16,2.23-.1,3.34.02.3.04.6.07.9s.06.58.1.87v.04c0,.06.02.13.03.18.08.55.17,1.1.29,1.65.17.82.39,1.63.64,2.43l.04.13v.02c.04.09.07.19.1.29h0c.04.11.07.22.11.32.18.49.36.98.57,1.45.14.33.29.65.45.96,1.06-.69,2.15-1.37,3.27-2.03,1.44-.85,2.92-1.67,4.43-2.46l.28-.14c.52-.27.99-.5,1.44-.73l.22-.11.27-.13c.73-.36,1.5-.72,2.3-1.07l.43-.2c1.7-.76,3.44-1.48,5.17-2.14.05-.02.1-.04.15-.06l.17-.07.46-.17c.41-.15.82-.3,1.23-.45,2.24-.8,4.54-1.53,6.83-2.18l.65-.18.17-.04c.3-.08.58-.16.84-.23h.05c.44-.12.84-.23,1.22-.33l.41-.1c.84-.21,1.68-.4,2.53-.59l.16-.04c.55-.13,1.13-.24,1.82-.38.14-.03.28-.06.42-.08.33-.06.66-.13.99-.19.38-.07.76-.14,1.14-.21s.76-.13,1.14-.2c.18-.03.38-.06.56-.09,2.04-.33,4.11-.61,6.16-.82.33-.62.63-1.25.9-1.9.02-.04.04-.08.05-.13.03-.06.05-.13.07-.19.07-.18.14-.36.21-.54.37-1.01.67-2.04.91-3.08l.04-.15Z"/>
  <path id="Path_364" class="st0" d="M51.66,35.58h-.04c-.69.09-1.44.18-2.21.28-1.07.14-2.31.3-3.6.49h-.07s-.36.06-.36.06c-.57.09-1.14.18-1.71.27h-.01l-.18.03c-.22.04-.44.08-.66.12-.29.05-.57.1-.85.16l-.31.06c-.3.06-.57.12-.82.17l-.13.03h-.05c-.29.07-.58.14-.87.21-1.57.36-3.18.77-4.78,1.22l-.1.03-.09.03-.52.15-.09.03c-.56.16-1.13.33-1.69.5-.34.1-.67.21-1,.32-.22.07-.45.14-.67.21-.31.1-.63.21-.93.31-.25.08-.49.16-.73.25-.55.19-1.1.38-1.64.58h-.02s-.63.24-.63.24l-.13.05c-.85.32-1.68.64-2.5.97-.39.16-.77.31-1.15.47-.21.09-.43.18-.64.27-.3.13-.6.26-.91.4l-.36.16c-.8.35-1.58.72-2.34,1.08-.27.13-.53.26-.79.39l-.18.09-.07.04-.19.09-.08.04-.18.09-.24.11-.33.17c-.27.14-.55.28-.82.42-1.09.57-2.16,1.15-3.18,1.73-.32.18-.65.38-1,.58l-.25.15c-.22.13-.44.26-.65.39l-.62.38c0,.17.02.43.05.75.07.76.17,1.51.32,2.25.02.09.04.19.06.29.07.32.14.64.22.95,0,.03.01.06.02.08.04.15.08.29.13.43.02.08.04.15.06.22l.03.1c.04.13.08.25.13.36l.02.06c.04.11.08.23.13.34l.03.07c.03.07.05.14.08.21.08.2.16.4.24.6.24.56.52,1.1.83,1.63l.03.05h0c.1.17.21.33.32.5l.04.05.02.03c.05.07.1.14.15.21.08.11.16.22.25.32s.15.18.22.27l.04.05c.22-.13.44-.25.65-.36h.03c.21-.13.42-.25.63-.36l.27-.15c.15-.08.29-.16.44-.24.38-.2.75-.39,1.11-.57l.53-.27c.33-.16.65-.32,1-.48h.01l.08-.04c.66-.31,1.36-.63,2.14-.96.54-.24,1.13-.49,1.85-.79,1.44-.61,2.98-1.22,4.59-1.81l.22-.08.42-.15.25-.09c.13-.05.27-.09.4-.14l.13-.05c.35-.13.7-.24,1.06-.36,1.08-.36,2.19-.72,3.31-1.06.27-.08.55-.16.83-.24h0c1.73-.5,3.38-.95,5-1.34.46-.11.92-.22,1.34-.31l.37-.08.15-.03h.05s.18-.05.18-.05l.33-.07.13-.03.11-.02c.83-.18,1.66-.35,2.49-.5.68-.13,1.37-.25,2.04-.36l.43-.07c.75-.13,1.43-.23,2.06-.33.22-.39.42-.79.61-1.2l.07-.14.02-.05c.21-.44.4-.89.59-1.34.02-.04.03-.09.05-.13.13-.32.26-.65.38-.99.08-.24.17-.49.25-.73s.15-.47.22-.71c.04-.12.08-.25.11-.38.05-.18.1-.35.15-.53.04-.15.08-.3.12-.46l.02-.07c.43-1.82.69-3.67.75-5.54Z"/>
  <path id="Path_365" class="st2" d="M31.87,56.91c-.19,1.54-.39,3.08-.59,4.62.21-1.54.4-3.09.59-4.62Z"/>
  <path id="Path_366" class="st2" d="M30.84,63.02h.25c.07-.49.13-.99.2-1.48-.07.49-.13.99-.2,1.48h-.25Z"/>
  <path id="Path_367" class="st0" d="M13.65,59.26h0l-.04-.05.04.05Z"/>
  <path id="Path_368" class="st0" d="M12.61,57.83l-.03-.05.03.05Z"/>
  <path id="Path_369" class="st0" d="M14.33,58.87h-.03s.03,0,.03,0Z"/>
  <path id="Path_370" class="st0" d="M12.61,57.83c.1.17.21.34.32.5l.04.05-.04-.05c-.11-.16-.22-.33-.32-.5Z"/>
  <path id="Path_371" class="st0" d="M13.39,58.94c-.08-.1-.16-.21-.25-.32.09.11.17.21.25.32Z"/>
  <path id="Path_372" class="st0" d="M17.31,57.3l-.53.27c-.36.18-.73.37-1.11.57-.14.08-.29.16-.44.24.15-.08.29-.16.44-.24.38-.2.75-.39,1.11-.57l.53-.27c.33-.16.66-.32,1-.48h0c-.35.16-.68.32-1,.48Z"/>
  <path id="Path_373" class="st0" d="M13.65,59.26c.22-.13.44-.25.65-.36-.22.12-.43.24-.65.36Z"/>
  <path id="Path_374" class="st0" d="M13.61,59.2c-.07-.08-.15-.18-.22-.27.08.09.15.18.22.27Z"/>
  <path id="Path_375" class="st0" d="M12.97,58.38l.02.02c.05.07.1.14.15.21-.05-.07-.1-.14-.15-.21l-.02-.02Z"/>
  <path id="Path_376" class="st0" d="M14.33,58.87c.21-.12.42-.23.63-.34l.27-.15-.27.15c-.21.11-.42.23-.63.34Z"/>
  <path id="Path_377" class="st0" d="M12.61,57.83"/>
  <path id="Path_378" class="st1" d="M70.61,8.47h5.25v13.02h16.45v-13.03h5.25v32.69h-5.25v-14.95h-16.45v14.95h-5.25V8.47Z"/>
  <path id="Path_379" class="st1" d="M108.56,26.65h13.23c.03-3.26-2.6-5.93-5.86-5.95h0c-.13,0-.26,0-.38,0-3.46.02-6.41,2.53-6.98,5.94M126.59,30.71h-18.13c.58,3.87,4.02,6.64,7.93,6.39,2.64-.02,5.18-1.05,7.08-2.87l2.48,3.57c-2.6,2.52-6.09,3.93-9.71,3.91-7.02.21-12.87-5.32-13.08-12.33-.21-7.02,5.32-12.87,12.33-13.08h.25c6.01-.21,11.04,4.5,11.24,10.51h0c0,.21,0,.42,0,.63-.01,1.1-.15,2.2-.4,3.27"/>
  <rect id="Rectangle_100" class="st1" x="132.24" y="4.01" width="5.2" height="37.15"/>
  <path id="Path_380" class="st1" d="M144.03,16.84h5.2v24.32h-5.2v-24.32ZM143.09,7.77c-.06-1.96,1.47-3.59,3.43-3.66,1.96-.06,3.59,1.47,3.66,3.43.06,1.96-1.47,3.59-3.43,3.66-.08,0-.16,0-.23,0-1.87-.06-3.36-1.56-3.43-3.43"/>
  <path id="Path_381" class="st1" d="M170.78,41.16l-6.09-8.92-6.04,8.92h-5.95l9.02-12.63-8.37-11.69h5.94l5.45,8.03,5.4-8.03h5.94l-8.42,11.74,9.07,12.58h-5.95Z"/>
  <path id="Path_382" class="st1" d="M123.39,53.95c0-2,1.63-3.61,3.63-3.61,2,0,3.61,1.63,3.61,3.63,0,2-1.63,3.61-3.63,3.61h0c-1.98,0-3.6-1.59-3.6-3.58h0s0-.05,0-.05ZM129.71,53.95c-.01-.15-.03-.3-.04-.45,0-.06-.02-.12-.03-.18-.35-1.46-1.81-2.36-3.27-2.01-1.46.35-2.36,1.81-2.01,3.27.35,1.46,1.81,2.36,3.27,2.01,1.22-.29,2.09-1.39,2.09-2.64h0Z"/>
  <path id="Path_383" class="st1" d="M158.93,50.33c2,0,3.63,1.61,3.64,3.61,0,2-1.61,3.63-3.61,3.64s-3.63-1.61-3.64-3.61h0c-.01-2,1.59-3.63,3.58-3.64h.03ZM161.62,53.96h.03c-.03-.25-.07-.51-.13-.75-.26-1.06-1.15-1.84-2.24-1.94-.66-.11-1.34.05-1.88.44-1.25.83-1.59,2.52-.75,3.77s2.52,1.59,3.77.75c.76-.5,1.21-1.35,1.21-2.26h0Z"/>
  <path id="Path_384" class="st1" d="M169.09,55.63v-5.17h.81c.1,0,.13.03.13.13v6.74q0,.14-.14.14h-.52c-.06,0-.11-.02-.14-.07-1.15-1.68-2.3-3.35-3.45-5.02-.02-.03-.05-.06-.09-.08v5.16h-.93s0-.07,0-.11v-6.76c0-.09.02-.13.12-.13.18,0,.36,0,.54,0,.06,0,.11.02.14.07.83,1.21,1.66,2.42,2.5,3.63l.97,1.4s.04.05.06.07h.02Z"/>
  <path id="Path_385" class="st1" d="M172.5,55.41c.07.15.13.29.21.42.25.43.68.72,1.17.8.46.1.93.06,1.37-.11.49-.2.74-.75.56-1.25-.1-.25-.3-.45-.55-.55-.35-.15-.71-.28-1.08-.41-.45-.13-.88-.31-1.3-.52-.45-.23-.77-.67-.85-1.17-.16-.88.33-1.75,1.16-2.08,1.16-.5,2.51-.09,3.19.97.06.09.1.19.16.29.02.03.02.07,0,.09,0,0-.02.01-.03.02-.23.13-.47.27-.71.41-.02-.03-.04-.07-.05-.1-.37-.82-1.32-1.21-2.15-.87-.51.18-.78.73-.6,1.24,0,0,0,0,0,0,0,.02.01.04.02.06.08.2.24.35.44.44.32.14.65.26.98.39.41.16.82.3,1.23.47.27.11.52.29.72.51.26.29.4.67.4,1.05.04.59-.21,1.15-.67,1.53-.31.26-.69.42-1.09.49-.72.15-1.46.05-2.12-.27-.53-.27-.94-.73-1.15-1.29-.03-.07-.02-.11.05-.15.23-.13.46-.27.7-.4Z"/>
  <path id="Path_386" class="st1" d="M120.87,52.3c-.11-.18-.23-.36-.36-.52-.38-.43-.95-.63-1.52-.52-.3.02-.58.16-.78.38-.34.39-.3.98.09,1.31.03.02.06.05.09.07.31.19.65.33,1,.43.51.15,1.01.34,1.48.58.45.21.78.61.9,1.09.23.87-.2,1.78-1.02,2.17-.52.25-1.1.34-1.67.27-.51-.03-1.01-.21-1.43-.5-.39-.28-.69-.67-.86-1.12-.02-.05-.03-.08.03-.12.23-.13.46-.26.69-.4.02,0,.03-.01.05-.01.03.06.05.13.07.18.22.55.72.95,1.31,1.03.44.09.9.06,1.33-.11.41-.15.67-.56.63-1-.02-.3-.18-.58-.45-.73-.31-.18-.64-.32-.99-.42-.43-.15-.87-.3-1.29-.47-.35-.13-.65-.37-.85-.68-.24-.37-.32-.83-.23-1.26.1-.72.62-1.32,1.33-1.51,1.14-.4,2.41.04,3.04,1.07.05.08.09.17.13.25,0,.03,0,.07-.02.09-.24.15-.48.29-.7.42Z"/>
  <path id="Path_387" class="st1" d="M142.52,50.47h.91s0,.07,0,.11v4.53c.03.66-.23,1.31-.7,1.77-.4.38-.92.62-1.47.67-.47.07-.94.03-1.39-.11-1-.28-1.69-1.21-1.67-2.25-.02-1.02,0-2.05,0-3.07v-1.54c0-.09.03-.13.13-.13h.81v4.55c0,.29.05.59.17.85.19.38.54.66.96.74.4.1.82.09,1.22-.03.57-.16.98-.66,1.02-1.25.01-.13.02-.26.02-.39v-4.47Z"/>
  <path id="Path_388" class="st1" d="M148.33,57.45h-.92v-6.11h-2.05s0-.07,0-.1v-.68c0-.08.02-.12.1-.1h4.8q.14,0,.14.14v.74h-1.94c-.1,0-.13.03-.13.13v5.99Z"/>
  <path id="Path_389" class="st1" d="M136.58,57.45h-3.94v-6.98h.81c.09,0,.13.03.11.12,0,.03,0,.06,0,.09v5.75q0,.15.15.15h2.71c.17,0,.16-.02.16.16,0,.23,0,.46,0,.7Z"/>
  <path id="Path_390" class="st1" d="M152.39,50.46h.86s.05.04.06.06c0,.03,0,.07,0,.1v6.82h-.92v-6.98Z"/>
  <path id="Path_391" class="st1" d="M104.1,52.02l-.79.47c-.07-.1-.13-.2-.2-.29-.36-.48-.9-.81-1.5-.91-.9-.2-1.84.06-2.5.71-.46.45-.74,1.06-.78,1.71-.05.52.04,1.03.27,1.5.35.72,1.01,1.24,1.8,1.39.57.13,1.16.11,1.71-.08.56-.17,1.03-.57,1.28-1.1.09-.19.15-.38.18-.59h-2.47c-.07,0-.1-.01-.09-.09v-.65q0-.1.09-.1h3.34s.06,0,.06.05c.02.44-.02.87-.13,1.29-.22.78-.75,1.43-1.46,1.81-.65.34-1.38.49-2.1.42-.69-.03-1.36-.27-1.93-.67-.66-.47-1.14-1.15-1.35-1.94-.3-1.01-.14-2.1.43-2.99.47-.76,1.23-1.31,2.1-1.52.78-.22,1.61-.17,2.36.14.67.27,1.24.74,1.62,1.36l.02.06Z"/>
  <path id="Path_392" class="st1" d="M81.14,55.64v-5.07q0-.11.11-.11h.72c.1,0,.1,0,.1.09v6.89h-.69s-.08-.02-.1-.06c-.82-1.19-1.64-2.38-2.46-3.57l-1.05-1.52s-.03-.03-.05-.07v5.21h-.93v-6.9c0-.07.02-.09.09-.09h.58c.05,0,.1.02.13.06.57.83,1.14,1.65,1.71,2.48.59.86,1.18,1.72,1.78,2.58.02.02.03.04.05.06h.02Z"/>
  <path id="Path_393" class="st1" d="M91.74,57.45h-.84c-.07,0-.09-.02-.09-.09v-6.79q0-.11.11-.11h2.64c1.19-.03,2.18.91,2.22,2.1.02.71-.32,1.39-.9,1.81-.16.11-.34.2-.53.31l1.63,2.77h-.96s-.08-.02-.1-.06c-.5-.85-1-1.7-1.49-2.55-.02-.05-.07-.07-.12-.07h-1.48c-.07,0-.09.02-.09.09v2.6ZM91.74,51.33v2.6h1.84c.1,0,.19,0,.29-.03.7-.18,1.12-.9.94-1.6-.15-.57-.66-.97-1.25-.98-.58.01-1.15,0-1.73,0h-.08Z"/>
  <path id="Path_394" class="st1" d="M74.79,56.58v.87h-4.17v-6.9c0-.07.02-.09.09-.09h3.95c.07,0,.09.02.09.09v.71c0,.07-.02.09-.09.09h-3q-.11,0-.11.11v1.94c0,.08.02.09.09.09h2.77c.08,0,.1.02.1.1,0,.23,0,.46,0,.69v.09h-2.84q-.1,0-.1.1v2.01c0,.1,0,.1.1.1h3.13Z"/>
  <path id="Path_395" class="st1" d="M88.33,54.36h-2.84q-.1,0-.1.1v2.01q0,.1.11.1h3.14v.88h-4.09c-.07,0-.09-.02-.09-.09v-6.81c0-.08.02-.09.1-.09h3.94c.08,0,.1.02.09.1v.7c0,.07-.02.09-.09.09h-3q-.11,0-.11.11v1.94c0,.08.02.1.09.1h2.75c.1,0,.1,0,.1.1v.77h0Z"/>
  <path id="Path_396" class="st1" d="M105.37,50.46h.96s.09.02.11.07c.6,1.05,1.21,2.1,1.82,3.14.01.02.02.04.04.06.02-.03.03-.05.05-.07.6-1.04,1.21-2.08,1.81-3.12.02-.05.08-.08.13-.08h.95l-.05.08-2.37,3.98c-.04.07-.07.15-.06.23v2.7h-.93v-2.75c0-.05-.01-.1-.04-.15-.79-1.33-1.57-2.65-2.36-3.97l-.06-.12Z"/>
</svg>