<?xml version="1.0" encoding="UTF-8"?>
<svg id="Layer_1" xmlns="http://www.w3.org/2000/svg" version="1.1" viewBox="0 0 620.04 200.15">
  <!-- Generator: Adobe Illustrator 30.0.0, SVG Export Plug-In . SVG Version: 2.1.1 Build 123)  -->
  <defs>
    <style>
      .st0 {
        fill: #1b2853;
      }

      .st1 {
        fill: #e42128;
      }
    </style>
  </defs>
  <path class="st0" d="M147.74,67.25c-2.42,0-4.41.93-5.91,2.76l-27.4,33.51-28.05-33.48c-1.52-1.82-3.56-2.74-6.05-2.74-3.93,0-6.18,2.12-6.18,5.82v38.65c0,2.15,1.02,3.66,2.88,4.24.46.15,1.31.3,4.06.3s4.46-1.7,4.46-4.54v-25.62l22.28,27.36c1.6,1.99,3.79,2.99,6.52,2.99s4.88-1.01,6.48-2.99l21.83-27.16v25.43c0,2.84,1.67,4.54,4.46,4.54s3.59-.15,4.06-.3c1.85-.59,2.88-2.09,2.88-4.24v-38.3c0-3.94-2.3-6.2-6.3-6.2"/>
  <path class="st0" d="M194.18,69.83c-.08-.13-.15-.25-.18-.33-.11-.24-.21-.42-.24-.47-.94-1.61-2.7-2.43-5.22-2.43-3.16,0-5.46,1.08-6.83,3.2l-26.31,40.56c-.32.48-.48,1.04-.48,1.62,0,.98.36,2.39,2.08,3.57,1.11.79,2.3,1.19,3.55,1.19,1.46,0,2.76-.83,3.85-2.45l6.93-10.14h33.48l6.91,10.13c1.28,1.94,3.07,2.96,5.18,2.96,1.57,0,2.9-.55,3.97-1.63,1.07-1.08,1.61-2.43,1.61-4.01,0-.89-.1-1.46-.35-1.9l-27.93-39.88ZM197.82,94.14h-19.54l9.8-14.49,9.74,14.49Z"/>
  <path class="st0" d="M241.46,77.08h29.65c2.79,0,4.46-1.7,4.46-4.54,0-4.88-3.12-5.41-4.46-5.41h-29.8c-1.64,0-3.01.04-4.19.11-1.18.08-2.21.18-3.1.32-3.38.62-6.29,1.87-8.68,3.7-3.01,2.34-4.53,5.25-4.53,8.64v22.92c0,2.67.64,4.9,1.89,6.6,1.05,1.5,2.78,2.87,5.29,4.19,2.09,1.07,4.15,1.8,6.12,2.19,1.78.32,4.57.48,8.52.48h28.3c2.86,0,4.57-1.88,4.57-5.03s-1.71-4.99-4.57-4.99h-28.3c-3.89,0-10.42-.47-10.42-3.59v-22.8c0-1.78,3.38-2.8,9.26-2.8"/>
  <path class="st0" d="M550.7,105.18c-3.32,0-6.02,2.72-6.02,6.07s2.69,6.07,6.02,6.07,6.02-2.72,6.02-6.07-2.7-6.07-6.02-6.07M550.7,116.34c-2.79,0-5.04-2.28-5.04-5.09,0-2.81,2.26-5.08,5.04-5.09,2.79,0,5.04,2.28,5.04,5.09,0,2.81-2.26,5.08-5.04,5.09ZM552.36,111.99c-.18-.19-.41-.37-.68-.53.55-.08.97-.27,1.25-.59.28-.31.42-.7.42-1.18,0-.37-.09-.71-.28-1-.18-.29-.43-.49-.73-.61-.3-.11-.79-.17-1.46-.17h-2.67v6.34h1.27v-2.65h.26c.29,0,.5.02.64.07.13.05.26.14.38.26.12.13.34.44.67.93l.92,1.38h1.52l-.77-1.24c-.3-.49-.54-.84-.72-1.03ZM550.4,110.6h-.94v-1.61h.99c.51,0,.82,0,.93.02.2.04.36.12.48.25s.17.3.17.52c0,.19-.04.35-.13.48-.09.13-.2.21-.36.27-.15.05-.53.08-1.14.08Z"/>
  <g>
    <path class="st1" d="M330.69,93.02c2.37-1.98,3.57-4.57,3.57-7.72v-3.73c0-5.74-3.12-12.59-17.98-12.59h-30.76c-2.93,0-4.76,1.66-4.76,4.35v40.18c0,2.68,1.82,4.34,4.76,4.34h31.75c8.06,0,17.67-2.04,17.67-11.74v-4.58c0-3.49-1.46-6.39-4.25-8.51ZM324.68,101.26v4.25c0,.84,0,3.38-7.66,3.38h-26v-11.34h26c7.66,0,7.66,2.79,7.66,3.7ZM291.02,88.94v-11.01h25.32c7.72,0,7.72,2.89,7.72,3.84v3.66c0,.87,0,3.51-7.23,3.51h-25.82Z"/>
    <path class="st1" d="M375.77,68.98h-13.77c-16.18,0-19.58,7.77-19.58,14.29v20.22c0,11.87,10.82,14.36,19.89,14.36h13.16c9.07,0,19.89-2.49,19.89-14.36v-20.22c0-6.52-3.4-14.29-19.58-14.29ZM375.52,108.9h-13.28c-9.57,0-9.57-4.07-9.57-5.6v-19.9c0-1.5,0-5.47,9.45-5.47h13.53c9.45,0,9.45,3.98,9.45,5.47v19.9c0,1.53,0,5.6-9.57,5.6Z"/>
    <path class="st1" d="M436.92,68.98h-13.77c-16.18,0-19.58,7.77-19.58,14.29v20.22c0,11.87,10.82,14.36,19.89,14.36h13.16c9.07,0,19.89-2.49,19.89-14.36v-20.22c0-6.52-3.4-14.29-19.58-14.29ZM436.67,108.9h-13.28c-9.57,0-9.57-4.07-9.57-5.6v-19.9c0-1.5,0-5.47,9.45-5.47h13.53c9.45,0,9.45,3.98,9.45,5.47v19.9c0,1.53,0,5.6-9.57,5.6Z"/>
    <path class="st1" d="M530.49,68.65c-2.8,0-4.25,1.47-5.21,2.76l-25.05,34.27-24.94-34.35c-1.38-1.86-3.01-2.69-5.27-2.69-3.16,0-5.13,1.84-5.13,4.8v40.18c0,2.84,1.89,4.54,5.07,4.54s5.19-1.7,5.19-4.54v-25.65l20.18,27.7c1.21,1.63,2.9,2.49,4.9,2.49s3.69-.86,4.91-2.5l20.29-27.77v25.73c0,2.84,1.92,4.54,5.13,4.54,3.78,0,5.13-2.35,5.13-4.54v-40.18c0-2.96-1.99-4.8-5.19-4.8Z"/>
  </g>
  <rect class="st0" x="47.95" y="126.32" width="112.47" height="6.59" rx="3.29" ry="3.29"/>
  <rect class="st1" x="244.18" y="126.32" width="328.57" height="6.59" rx="3.29" ry="3.29"/>
  <rect class="st0" x="182.88" y="126.62" width="40.03" height="6.59" rx="3.29" ry="3.29"/>
</svg>