<?xml version="1.0" encoding="UTF-8"?>
<svg id="Layer_1" xmlns="http://www.w3.org/2000/svg" version="1.1" viewBox="0 0 215 83">
  <!-- Generator: Adobe Illustrator 30.0.0, SVG Export Plug-In . SVG Version: 2.1.1 Build 123)  -->
  <defs>
    <style>
      .st0 {
        fill: #004765;
      }
    </style>
  </defs>
  <g id="Vector_Smart_Object">
    <g id="Vector_Smart_Object-2">
      <g id="Grupo_8">
        <g id="Grupo_4">
          <path id="Caminho_3550" class="st0" d="M64.05,52.1c7.69,0,11.21,5.63,11.21,15.18s-3.75,15.72-11.48,15.72-11.21-5.89-11.21-15.36c0-10.23,4.06-15.54,11.48-15.54ZM56.9,67.86c0,7.99,2.95,11.83,7.1,11.83,4.38,0,7.01-3.84,7.01-12.28s-3.08-12.01-7.1-12.01h-.04c-4.15,0-6.97,3.84-6.97,12.46h0Z"/>
          <path id="Caminho_3551" class="st0" d="M91.66,64.78h-.22c-.41-.04-.82-.13-1.21-.27-.85-.37-1.76-.57-2.68-.58-.21,0-.42,0-.62.05-2.82.22-4.82,2.68-4.82,8.04,0,6.43,2.82,7.77,5.72,7.77,1.33,0,2.64-.3,3.84-.85.14.4.23.82.27,1.25-.08.7-.43,1.34-.98,1.79-1.19.69-2.56,1.03-3.93.98-4.82,0-8.93-1.79-8.93-10.72,0-4.73,1.52-7.64,3.26-9.25,1.68-1.5,3.87-2.28,6.12-2.19,2.63,0,4.6,1.21,4.78,1.79-.03.76-.23,1.51-.58,2.19Z"/>
          <path id="Caminho_3552" class="st0" d="M108.67,78.54c.14.59.23,1.18.27,1.79-.04.89-1.34,1.83-2.59,2.14-1.11.29-2.25.44-3.4.45-2.23.15-4.43-.63-6.07-2.14-1.56-1.61-2.37-4.42-2.37-8.13,0-8.62,3.67-11.84,8.58-11.84,4.02,0,6.07,2.46,6.48,6.3.04.67.09,1.38.09,2.14.01.89-.08,1.77-.27,2.64-.97.54-2.03.88-3.13,1.02-1.93.2-3.87.29-5.81.27-.72,0-1.3,0-2.01-.04.04,4.91,2.14,6.48,5.27,6.48,1.72.06,3.42-.31,4.96-1.07ZM102.24,63.76c-1.79.27-3.49,2.28-3.71,6.61h1.7c1.74,0,3.58-.04,4.43-.13.36,0,.71-.1,1.02-.26.16-.48.23-.97.23-1.48,0-.36-.04-.67-.04-.98-.22-2.5-1.2-3.8-3.21-3.8-.14,0-.27,0-.4.04h0Z"/>
          <path id="Caminho_3553" class="st0" d="M113.37,63.44c0-.17.03-.33.09-.49,1.93-1.39,4.24-2.14,6.61-2.15.71,0,.8,0,1.57.05,3.3.22,4.38,2.41,4.38,6.21v2.01c0,3.08-.09,6.66-.09,9.02,0,0-.18,2.32,1.25,2.05-.05.62-.05,1.38-.05,1.65-.6.67-1.47,1.05-2.37,1.03-1.08-.14-2.05-.72-2.68-1.61-.39.4-.82.74-1.3,1.03-1.03.45-2.14.65-3.26.58-2.86,0-5.58-1.78-5.58-5.89,0-5.49,4.87-6.88,7.55-7.15.42-.04.83-.05,1.25-.04.5,0,.99.04,1.48.13v-2.54c0-2.01-.22-3.13-2.14-3.13-1.62.1-3.21.49-4.69,1.16-.4.2-.84.33-1.29.36-.37-.53-.6-1.14-.67-1.79-.04-.16-.05-.33-.04-.49ZM122.21,75.58v-3.17c-.3-.04-.6-.05-.89-.04-.49,0-.98.03-1.47.09-2.15.36-3.98,1.3-3.98,4.11,0,2.28.99,3.08,2.37,3.17h.31c1.28,0,2.52-.49,3.44-1.38.06-.2.11-.42.13-.63.09-.71.12-1.42.09-2.14h0Z"/>
          <path id="Caminho_3554" class="st0" d="M134.99,65.99v13.93c.07.73-.1,1.47-.49,2.1-.54.45-1.03.4-3.44.45.04-2.41.09-5.27.09-8.71v-7.59c.02-1.14-.16-2.27-.54-3.35.53-.45,1.14-.79,1.79-1.03.1-.03.21-.05.31-.05.8,0,1.21.58,1.39,1.34.9-.78,1.95-1.37,3.08-1.74.89-.32,1.83-.48,2.77-.49,5.32,0,6.34,2.81,6.34,7.86v6.84c0,2.45.04,4.6.09,6.38-.45.4-1.12.54-3.66.54-.27-.57-.39-1.2-.36-1.83v-11.84c0-3.44-.85-4.69-3.53-4.69-1.49.05-2.89.73-3.84,1.87Z"/>
        </g>
        <path id="Caminho_3555" class="st0" d="M151.25,54.02c0-.36-.04-.85-.04-1.3.36-.19.76-.29,1.16-.31h.13c1.38-.09,2.99-.13,4.6-.13,5.99,0,9.61,2.59,9.61,9.2s-4.33,8.53-7.32,8.89c-.99,0-2.37-.09-2.37-1.88,0-.22.31-.45.67-.45,2.14,0,4.74-1.61,4.74-6.74,0-4.33-2.28-5.81-4.96-5.81-.75-.03-1.49,0-2.23.09v19.74l.04,4.96c.05.61-.11,1.23-.45,1.74-.49.54-1.38.45-3.57.45.04-2.59.09-5.58.09-9.15l-.09-19.29Z"/>
        <path id="Caminho_3556" class="st0" d="M170.1,63.44c0-.17.03-.33.09-.49,1.93-1.39,4.24-2.14,6.62-2.15.71,0,.8,0,1.56.05,3.31.22,4.38,2.41,4.38,6.21v2.01c0,3.08-.09,6.66-.09,9.02,0,0-.18,2.32,1.25,2.05-.04.62-.04,1.38-.04,1.65-.6.67-1.47,1.05-2.37,1.03-1.08-.14-2.05-.72-2.68-1.61-.39.4-.83.74-1.3,1.03-1.03.45-2.14.65-3.26.58-2.86,0-5.59-1.78-5.59-5.89,0-5.49,4.87-6.88,7.55-7.15.42-.04.83-.05,1.25-.04.5,0,.99.04,1.48.13v-2.54c0-2.01-.22-3.13-2.14-3.13-1.62.1-3.21.49-4.69,1.16-.4.21-.85.33-1.3.36-.37-.53-.6-1.14-.67-1.79-.04-.16-.05-.33-.04-.49ZM178.95,75.58v-3.17c-.3-.04-.6-.05-.89-.04-.49,0-.98.03-1.47.09-2.14.36-3.98,1.3-3.98,4.11,0,2.28.98,3.08,2.37,3.17h.31c1.28,0,2.52-.49,3.44-1.38.06-.21.11-.42.13-.63.08-.71.11-1.42.09-2.14h0Z"/>
        <path id="Caminho_3557" class="st0" d="M200.26,64.78h-.23c-.41-.04-.82-.13-1.21-.27-.84-.37-1.76-.57-2.68-.58-.21,0-.42,0-.62.05-2.82.22-4.82,2.68-4.82,8.04,0,6.43,2.82,7.77,5.72,7.77,1.33,0,2.64-.3,3.85-.85.14.4.23.82.27,1.25-.08.7-.43,1.34-.98,1.79-1.19.69-2.56,1.03-3.93.98-4.82,0-8.94-1.79-8.94-10.72,0-4.73,1.52-7.64,3.27-9.25,1.68-1.5,3.87-2.28,6.12-2.19,2.64,0,4.6,1.21,4.78,1.79-.03.76-.23,1.51-.58,2.19Z"/>
        <path id="Caminho_3558" class="st0" d="M214.73,79.96c0,.42,0,.83-.04,1.25-.11.37-.35.68-.67.89-1.16.59-2.45.88-3.75.85-4.16,0-4.91-3.88-4.91-7.5v-11.03c-.92.07-1.84-.09-2.68-.44,0-1.38.05-1.21.4-1.56.63-.54,2.01-.67,2.68-.98l.23-4.02c.31-.89,1.25-1.65,3.35-1.79-.05,2.05-.09,3.93-.09,5.76h5.77c-.13,2.24-.4,2.72-1.03,2.86-.36.05-.71.08-1.07.09-1.16.05-1.74.05-3.67.05-.04,2.05-.09,4.15-.09,6.07s.05,3.7.05,5.18c.18,2.5.58,4.24,2.37,4.24,1.08-.09,2.12-.39,3.08-.89.06.32.09.65.09.98Z"/>
        <g id="Grupo_5">
          <path id="Caminho_3559" class="st0" d="M1.39,49.14c2.96-3.67,5.55-10.25,9.44-11.65,4.9-1.76,14.77.86,19.24-1.31,2.59-1.26,4.13-4.59,5.87-7.62-1.66-2.04-4.11-3.28-6.74-3.41h-14.12c-2.83.13-5.43,1.56-7.06,3.88L.97,40.68c-1.29,2.43-1.29,5.34,0,7.76l.42.7Z"/>
          <path id="Caminho_3560" class="st0" d="M13.43,44.98c4.94-1.66,14.75,1.15,19.26-.93,3.12-1.43,4.81-5.86,7.1-9.17l-2.08-3.44c-1.78,3.08-3.33,6.53-5.98,7.81-4.47,2.17-14.34-.45-19.24,1.31-3.84,1.38-6.41,7.82-9.33,11.51l1.74,2.86c2.6-3.68,5.11-8.79,8.53-9.95Z"/>
          <path id="Caminho_3561" class="st0" d="M36.49,51.46c-4.51,2.08-14.32-.73-19.26.93-3.17,1.07-5.57,5.56-7.98,9.14,1.6,1.47,3.67,2.33,5.83,2.43h14.11c2.83-.13,5.43-1.56,7.06-3.88l7.06-11.65c1.07-2.01,1.27-4.38.55-6.54-2.44,3.35-4.13,8.07-7.38,9.56Z"/>
        </g>
        <g id="Grupo_6">
          <path id="Caminho_3562" class="st0" d="M48.91,20.79c3.84-1.29,11.46.89,14.97-.72,2.42-1.12,3.74-4.55,5.52-7.13l-1.62-2.67c-1.39,2.39-2.59,5.07-4.64,6.07-3.47,1.68-11.14-.35-14.95,1.02-2.98,1.07-4.98,6.08-7.25,8.94l1.35,2.22c2.02-2.86,3.97-6.83,6.62-7.73Z"/>
          <path id="Caminho_3563" class="st0" d="M39.57,24.02c2.3-2.85,4.31-7.96,7.33-9.05,3.81-1.37,11.48.67,14.95-1.02,2.01-.98,3.21-3.57,4.56-5.92-1.29-1.58-3.19-2.55-5.23-2.65h-10.97c-2.2.1-4.22,1.22-5.48,3.02l-5.48,9.05c-1.01,1.88-1.01,4.15,0,6.03l.33.54Z"/>
          <path id="Caminho_3564" class="st0" d="M66.83,25.83c-3.51,1.62-11.13-.57-14.96.72-2.47.83-4.33,4.32-6.2,7.11,1.25,1.14,2.85,1.8,4.53,1.89h10.97c2.2-.1,4.22-1.22,5.48-3.02l5.48-9.05c.83-1.56.98-3.4.43-5.08-1.9,2.6-3.22,6.27-5.73,7.43Z"/>
        </g>
        <g id="Grupo_7">
          <path id="Caminho_3565" class="st0" d="M21.45,11.04c2.75-.93,8.21.64,10.72-.52,1.74-.8,2.68-3.26,3.95-5.1l-1.16-1.92c-.99,1.71-1.86,3.64-3.33,4.35-2.49,1.21-7.98-.25-10.71.73-2.14.77-3.57,4.35-5.19,6.41l.96,1.59c1.45-2.05,2.85-4.9,4.75-5.54Z"/>
          <path id="Caminho_3566" class="st0" d="M34.29,14.65c-2.51,1.16-7.97-.41-10.72.52-1.77.6-3.1,3.1-4.44,5.09.89.82,2.04,1.3,3.25,1.36h7.86c1.57-.07,3.02-.87,3.93-2.16l3.93-6.49c.59-1.12.7-2.43.3-3.64-1.35,1.86-2.3,4.49-4.1,5.32Z"/>
          <path id="Caminho_3567" class="st0" d="M14.75,13.36c1.65-2.04,3.09-5.7,5.25-6.48,2.73-.98,8.22.48,10.71-.73,1.44-.7,2.29-2.56,3.27-4.24C33.06.76,31.7.07,30.24,0h-7.86c-1.57.07-3.02.87-3.93,2.16l-3.93,6.48c-.72,1.35-.72,2.97,0,4.32l.24.39Z"/>
        </g>
      </g>
    </g>
    <path id="Color_Overlay" class="st0" d="M52.57,67.64c0-10.23,4.07-15.54,11.48-15.54s11.21,5.63,11.21,15.18-3.76,15.72-11.48,15.72c-8.04,0-11.21-5.89-11.21-15.36ZM56.9,67.86c0,7.99,2.95,11.83,7.1,11.83,4.38,0,7.01-3.84,7.01-12.28s-3.08-12.01-7.1-12.01h-.05c-4.15,0-6.97,3.84-6.97,12.46h0ZM205.35,75.45v-11.03c-.92.07-1.84-.09-2.68-.44,0-1.38.05-1.21.4-1.56.63-.54,2.01-.67,2.68-.98l.23-4.02c.31-.89,1.25-1.65,3.35-1.79-.05,2.06-.09,3.93-.09,5.76h5.77c-.13,2.24-.41,2.72-1.03,2.86-.36.05-.71.08-1.07.09-1.16.05-1.74.05-3.67.05-.04,2.05-.09,4.15-.09,6.07s.04,3.7.04,5.18c.18,2.5.58,4.24,2.37,4.24,1.08-.09,2.12-.39,3.08-.89.06.32.09.65.09.98,0,.42,0,.83-.04,1.25-.11.37-.35.68-.67.89-1.16.59-2.45.88-3.75.85-4.16,0-4.91-3.89-4.91-7.5h0ZM186.67,72.24c0-4.73,1.52-7.64,3.27-9.25,1.68-1.5,3.87-2.28,6.12-2.19,2.63,0,4.6,1.21,4.78,1.79-.03.76-.23,1.51-.58,2.19h-.23c-.41-.04-.82-.13-1.21-.27-.84-.37-1.76-.57-2.68-.58-.21,0-.42,0-.62.05-2.82.22-4.82,2.68-4.82,8.04,0,6.43,2.82,7.77,5.72,7.77,1.33,0,2.64-.3,3.85-.85.14.4.23.82.27,1.25-.08.7-.43,1.34-.98,1.79-1.19.69-2.56,1.03-3.93.98-4.82,0-8.94-1.79-8.94-10.71h0ZM78.07,72.24c0-4.73,1.52-7.64,3.26-9.25,1.68-1.5,3.87-2.28,6.12-2.19,2.64,0,4.6,1.21,4.78,1.79-.03.76-.23,1.51-.58,2.19h-.22c-.41-.04-.82-.13-1.21-.27-.84-.37-1.76-.57-2.68-.58-.21,0-.42,0-.63.05-2.81.22-4.82,2.68-4.82,8.04,0,6.43,2.81,7.77,5.72,7.77,1.33,0,2.64-.3,3.84-.85.14.4.23.82.27,1.25-.08.7-.43,1.34-.98,1.79-1.19.69-2.56,1.03-3.93.98-4.82,0-8.93-1.79-8.93-10.71h0ZM96.88,80.77c-1.56-1.61-2.37-4.42-2.37-8.13,0-8.62,3.67-11.84,8.58-11.84,4.02,0,6.08,2.46,6.48,6.3.04.67.09,1.38.09,2.14.01.89-.08,1.77-.27,2.64-.97.54-2.03.88-3.13,1.02-1.93.2-3.87.29-5.81.27-.72,0-1.3,0-2.01-.04.04,4.91,2.14,6.47,5.27,6.47,1.72.06,3.42-.31,4.96-1.07.14.59.23,1.18.27,1.79-.05.89-1.34,1.83-2.59,2.14-1.11.29-2.25.44-3.4.45-2.23.14-4.42-.63-6.06-2.15h0ZM102.24,63.75c-1.79.27-3.49,2.28-3.71,6.61h1.7c1.74,0,3.58-.04,4.42-.13.36,0,.71-.1,1.03-.27.16-.48.23-.97.22-1.48,0-.36-.04-.67-.04-.98-.22-2.5-1.21-3.8-3.21-3.8-.13,0-.27.01-.4.05h0ZM178.81,81.22c-.39.4-.83.74-1.3,1.03-1.03.45-2.14.65-3.26.58-2.86,0-5.59-1.78-5.59-5.89,0-5.49,4.87-6.88,7.55-7.15.42-.04.83-.05,1.25-.04.5,0,.99.04,1.48.13v-2.54c0-2.01-.22-3.13-2.14-3.13-1.62.1-3.21.5-4.69,1.17-.41.2-.85.33-1.3.36-.37-.53-.6-1.14-.67-1.79-.08-.32-.06-.66.04-.98,1.93-1.39,4.25-2.14,6.62-2.15.71,0,.8,0,1.56.05,3.31.22,4.38,2.41,4.38,6.21v2.01c0,3.08-.09,6.65-.09,9.02,0,0-.18,2.32,1.25,2.05-.04.62-.04,1.38-.04,1.65-.6.67-1.47,1.05-2.37,1.03-1.07-.14-2.04-.72-2.68-1.6h0ZM176.58,72.46c-2.15.36-3.98,1.3-3.98,4.11,0,2.28.98,3.08,2.37,3.17h.31c1.28,0,2.52-.49,3.44-1.38.06-.2.11-.41.13-.63.08-.71.11-1.43.09-2.14v-3.17c-.3-.04-.6-.05-.89-.04-.49,0-.98.03-1.47.09h0ZM122.08,81.22c-.39.4-.82.74-1.3,1.03-1.03.45-2.14.65-3.26.58-2.86,0-5.58-1.78-5.58-5.89,0-5.49,4.87-6.88,7.55-7.15.42-.04.83-.05,1.25-.04.5,0,.99.04,1.48.13v-2.54c0-2.01-.22-3.13-2.15-3.13-1.62.1-3.21.5-4.69,1.17-.4.2-.84.33-1.29.36-.37-.53-.6-1.14-.67-1.79-.04-.16-.06-.33-.05-.49,0-.17.03-.33.09-.49,1.93-1.39,4.24-2.14,6.61-2.15.72,0,.8,0,1.57.05,3.3.22,4.38,2.41,4.38,6.21v2.01c0,3.08-.09,6.65-.09,9.02,0,0-.18,2.32,1.25,2.05-.04.62-.04,1.38-.04,1.65-.6.67-1.47,1.05-2.37,1.03-1.07-.15-2.04-.73-2.67-1.61h0ZM119.84,72.46c-2.15.36-3.98,1.3-3.98,4.11,0,2.28.99,3.08,2.37,3.17h.32c1.28,0,2.52-.49,3.44-1.38.06-.2.11-.41.13-.63.09-.71.12-1.43.09-2.14v-3.17c-.3-.04-.6-.05-.89-.04-.49,0-.98.03-1.47.09h0ZM151.24,82.46c.04-2.59.09-5.58.09-9.15l-.09-19.29c0-.36-.04-.85-.04-1.3.36-.19.76-.29,1.16-.31h.13c1.38-.09,2.99-.13,4.6-.13,5.99,0,9.61,2.59,9.61,9.2s-4.33,8.53-7.33,8.89c-.98,0-2.37-.09-2.37-1.88,0-.22.31-.45.67-.45,2.15,0,4.74-1.61,4.74-6.74,0-4.33-2.28-5.81-4.96-5.81-.75-.03-1.49,0-2.23.09v19.74l.04,4.96c.05.61-.11,1.23-.45,1.74-.36.4-.96.45-2.14.45-.4,0-.87,0-1.43,0h0ZM142.36,80.63v-11.83c0-3.44-.85-4.69-3.53-4.69-1.49.05-2.89.73-3.84,1.88v13.93c.07.73-.1,1.47-.49,2.1-.54.44-1.03.4-3.44.44.05-2.41.09-5.27.09-8.71v-7.59c.02-1.14-.16-2.27-.54-3.35.53-.45,1.13-.79,1.79-1.03.1-.03.21-.05.31-.05.8,0,1.21.58,1.39,1.34.9-.78,1.95-1.37,3.08-1.74.89-.32,1.83-.48,2.77-.49,5.32,0,6.34,2.81,6.34,7.86v6.83c0,2.45.04,4.6.09,6.38-.45.4-1.12.54-3.66.54-.27-.57-.39-1.2-.35-1.83h0ZM15.08,63.97c-2.17-.11-4.23-.97-5.83-2.43,2.41-3.58,4.81-8.07,7.98-9.14,2.36-.8,5.83-.57,9.3-.34,3.8.25,7.6.5,9.96-.59,3.25-1.49,4.94-6.21,7.38-9.56.71,2.17.51,4.53-.55,6.54l-7.06,11.65c-1.63,2.32-4.23,3.75-7.06,3.88h-14.12ZM3.17,52.07c2.92-3.69,5.49-10.13,9.33-11.51,2.34-.84,5.81-.68,9.29-.52,3.8.17,7.62.35,9.95-.79,2.64-1.28,4.19-4.74,5.98-7.81l2.09,3.44c-2.3,3.31-3.98,7.74-7.1,9.17-2.36,1.09-6.16.84-9.96.59-3.47-.23-6.94-.45-9.3.34-3.42,1.15-5.93,6.26-8.53,9.95l-1.74-2.86ZM.97,48.45c-1.29-2.43-1.29-5.34,0-7.76l7.06-11.65c1.62-2.32,4.23-3.75,7.06-3.88h14.11c2.63.13,5.08,1.37,6.74,3.41-1.74,3.03-3.28,6.36-5.87,7.62-2.33,1.14-6.14.96-9.95.79-3.48-.16-6.95-.32-9.29.52-3.89,1.4-6.48,7.98-9.44,11.65l-.42-.7ZM50.2,35.54c-1.68-.08-3.29-.75-4.53-1.89,1.87-2.79,3.73-6.27,6.2-7.11,1.83-.62,4.53-.44,7.23-.27,2.95.19,5.9.39,7.73-.46,2.52-1.16,3.84-4.83,5.73-7.43.55,1.68.4,3.52-.43,5.08l-5.48,9.05c-1.26,1.8-3.29,2.91-5.48,3.02h-10.97ZM40.94,26.29c2.26-2.87,4.26-7.87,7.25-8.94,1.82-.65,4.52-.53,7.22-.41,2.95.13,5.91.27,7.72-.61,2.05-1,3.26-3.69,4.64-6.07l1.62,2.67c-1.78,2.57-3.09,6.01-5.52,7.13-1.83.85-4.79.65-7.74.46-2.7-.18-5.4-.35-7.23.26-2.65.9-4.6,4.87-6.63,7.73l-1.35-2.22ZM39.24,23.48c-1.01-1.88-1.01-4.15,0-6.03l5.48-9.05c1.26-1.8,3.29-2.91,5.48-3.02h10.97c2.04.1,3.94,1.07,5.23,2.65-1.35,2.35-2.55,4.94-4.56,5.92-1.81.88-4.77.75-7.73.61-2.7-.12-5.4-.25-7.22.41-3.02,1.09-5.03,6.2-7.33,9.05l-.33-.54ZM22.38,21.61c-1.21-.06-2.36-.54-3.25-1.36,1.35-1.99,2.67-4.49,4.44-5.09,1.7-.36,3.46-.42,5.18-.19,2.11.14,4.23.28,5.54-.33,1.8-.83,2.75-3.46,4.1-5.32.4,1.2.29,2.52-.3,3.64l-3.93,6.48c-.9,1.29-2.36,2.09-3.93,2.16h-7.86ZM15.74,14.98c1.62-2.06,3.06-5.64,5.19-6.41,1.69-.39,3.44-.49,5.17-.29,2.12.1,4.24.19,5.54-.44,1.47-.71,2.33-2.64,3.33-4.35l1.16,1.92c-1.28,1.84-2.22,4.31-3.95,5.1-1.31.61-3.43.47-5.55.33-1.72-.23-3.47-.17-5.18.19-1.9.64-3.3,3.49-4.75,5.54l-.96-1.59ZM14.52,12.97c-.72-1.35-.72-2.97,0-4.32l3.93-6.48c.9-1.29,2.35-2.09,3.93-2.16h7.86c1.46.07,2.82.76,3.75,1.9-.97,1.68-1.83,3.54-3.27,4.24-1.3.63-3.42.53-5.54.44-1.73-.2-3.48-.1-5.17.29-2.16.78-3.6,4.44-5.25,6.48l-.24-.39Z"/>
  </g>
</svg>