<?xml version="1.0" encoding="UTF-8"?>
<svg id="Grupo_167" xmlns="http://www.w3.org/2000/svg" version="1.1" viewBox="0 0 260 77.7">
  <!-- Generator: Adobe Illustrator 30.0.0, SVG Export Plug-In . SVG Version: 2.1.1 Build 123)  -->
  <defs>
    <style>
      .st0 {
        fill: none;
      }

      .st1 {
        fill: #139bd7;
      }

      .st2 {
        fill: #405b70;
      }

      .st3 {
        fill: #c3d52e;
      }

      .st4 {
        fill: #00597f;
      }
    </style>
  </defs>
  <rect class="st0" y="0" width="260" height="77.7"/>
  <path id="Caminho_558" class="st2" d="M31.09,47.59l-.05-.08.05.08"/>
  <path id="Caminho_559" class="st2" d="M30.87,47.25l-.03-.05.03.05"/>
  <path id="Caminho_560" class="st2" d="M30.12,45.95l-.02-.04.02.04"/>
  <path id="Caminho_561" class="st2" d="M31.31,47.93l-.06-.09.06.09"/>
  <path id="Caminho_562" class="st2" d="M47.26,55.63h-.18s.18,0,.18,0"/>
  <path id="Caminho_563" class="st2" d="M29.79,45.27l-.04-.08.04.08"/>
  <path id="Caminho_564" class="st2" d="M29.63,44.91l-.03-.07.03.07"/>
  <path id="Caminho_565" class="st2" d="M31.54,48.26l-.07-.09.07.09"/>
  <path id="Caminho_566" class="st2" d="M29.48,44.54v-.04s0,.04,0,.04"/>
  <path id="Caminho_567" class="st2" d="M63.93,38.35v.13-.13"/>
  <path id="Caminho_568" class="st2" d="M28.97,43.13v-.04s0,.04,0,.04"/>
  <path id="Caminho_569" class="st2" d="M46.05,55.67h0"/>
  <path id="Caminho_570" class="st2" d="M46.87,55.65h-.24s.24,0,.24,0"/>
  <path id="Caminho_571" class="st2" d="M46.46,55.67c-.14,0-.27,0-.41,0,.14,0,.28,0,.41,0"/>
  <path id="Caminho_572" class="st2" d="M63.9,39.02h0s0,0,0,0"/>
  <path id="Caminho_573" class="st2" d="M31.77,48.56l-.06-.07.06.07"/>
  <path id="Caminho_574" class="st2" d="M47.62,55.6h-.11s.11,0,.11,0"/>
  <path id="Caminho_575" class="st2" d="M45.48,55.66h-.13s.13,0,.13,0"/>
  <path id="Caminho_576" class="st2" d="M44.8,55.63h0"/>
  <path id="Caminho_577" class="st2" d="M29.96,45.62l-.04-.07.04.07"/>
  <path id="Caminho_578" class="st2" d="M28.76,42.41l-.02-.09.02.09"/>
  <path id="Caminho_579" class="st2" d="M28.18,38.58v-.07.07"/>
  <path id="Caminho_580" class="st2" d="M28.2,38.99s0-.07,0-.1c0,.03,0,.07,0,.1"/>
  <path id="Caminho_581" class="st2" d="M28.27,39.79s0-.06-.01-.1c0,.03,0,.06.01.1"/>
  <path id="Caminho_582" class="st2" d="M28.32,40.15s0-.04,0-.06c0,.02,0,.04,0,.06"/>
  <path id="Caminho_583" class="st2" d="M63.93,38.47c0,.18-.02.37-.03.54h0c-.61,8.79-7.51,15.82-16.28,16.59h-.11s-.25.03-.25.03h-.18s-.21.02-.21.02h-.24s-.16.01-.16.01c-.14,0-.27,0-.41,0h0c-.15,0-.3,0-.44,0h-.25c-.18-.01-.37-.02-.55-.03h0c-4.1-.28-7.98-1.97-10.97-4.79l-.1-.09-.07-.07c-.08-.08-.17-.16-.25-.25l-.06-.06c-.56-.57-1.09-1.17-1.57-1.81l-.06-.07c-.06-.08-.12-.16-.17-.24l-.07-.09c-.06-.08-.11-.16-.17-.24l-.06-.09c-.06-.08-.11-.16-.16-.24l-.05-.08c-.06-.09-.11-.17-.17-.26l-.03-.05c-.25-.41-.49-.83-.71-1.26l-.02-.04c-.05-.09-.1-.19-.14-.29l-.04-.07c-.04-.09-.09-.18-.13-.28l-.04-.08c-.04-.09-.08-.19-.13-.28l-.03-.07c-.04-.1-.08-.2-.12-.3v-.04c-.2-.45-.36-.91-.5-1.37v-.04c-.05-.1-.07-.2-.11-.3l-.02-.08c-.03-.1-.05-.19-.08-.29l-.02-.09c-.03-.1-.05-.2-.07-.29l-.02-.09c-.02-.1-.05-.2-.07-.31v-.05c-.11-.47-.19-.95-.26-1.43,0-.02,0-.04,0-.06-.01-.1-.02-.21-.04-.31,0-.03,0-.06-.01-.1-.01-.1-.02-.2-.03-.3,0-.04,0-.07,0-.11,0-.1-.02-.2-.02-.3,0-.03,0-.07,0-.1,0-.1-.01-.21-.02-.31v-.07c0-.24-.02-.48-.02-.73h-8.95c0,14.81,11.99,26.83,26.8,26.84h.03c.45,0,.9-.01,1.35-.03,2.23-.11,4.44-.5,6.58-1.16.43-.13.85-.27,1.27-.43s.84-.32,1.25-.49c3.19-1.35,6.08-3.3,8.53-5.75.21-.21.41-.41.6-.63,4.46-4.74,7.03-10.95,7.24-17.45.01-.3.02-.6.02-.9h-8.95c0,.19,0,.38-.01.57,0,.04,0,.09,0,.13"/>
  <path id="Caminho_584" class="st2" d="M28.23,39.39s0-.07,0-.11c0,.04,0,.07,0,.11"/>
  <path id="Caminho_585" class="st2" d="M28.57,41.63v-.05s0,.05,0,.05"/>
  <path id="Caminho_586" class="st2" d="M28.66,42.02l-.02-.09.02.09"/>
  <path id="Caminho_587" class="st2" d="M28.87,42.78l-.02-.08.02.08"/>
  <path id="Caminho_588" class="st3" d="M72.87,38.68c-.21,6.5-2.78,12.71-7.24,17.45-.2.21-.4.42-.6.63-2.44,2.45-5.34,4.4-8.52,5.75-.41.17-.83.34-1.25.49-.42.15-.84.3-1.27.43-2.13.66-4.34,1.05-6.58,1.16-.45.02-.9.03-1.35.03-14.81,0-26.83-11.99-26.84-26.8,0-.01,0-.03,0-.04h8.95c0-9.88,8.01-17.89,17.89-17.89v-8.95h0V2c-19.77,0-35.78,16.04-35.77,35.81,0,14.37,8.61,27.34,21.84,32.94,18.2,7.7,39.19-.81,46.88-19.01,1.87-4.42,2.83-9.16,2.83-13.96h-8.94c0,.3,0,.6-.02.9"/>
  <path id="Caminho_589" class="st3" d="M21.33,48.23c-1.4-3.31-2.12-6.86-2.11-10.45,0,3.59.71,7.14,2.11,10.45"/>
  <path id="Caminho_590" class="st3" d="M72.87,38.68c-.1,3.28-.81,6.52-2.1,9.55,1.28-3.03,1.99-6.26,2.1-9.55"/>
  <path id="Caminho_591" class="st3" d="M27.08,56.76c-2.45-2.44-4.4-5.34-5.75-8.53,1.35,3.19,3.3,6.08,5.75,8.53"/>
  <path id="Caminho_592" class="st3" d="M70.78,48.23c-1.23,2.92-2.98,5.59-5.14,7.9,2.17-2.31,3.91-4.98,5.14-7.9"/>
  <path id="Caminho_593" class="st1" d="M63.91,38.93c0-.14.02-.27.02-.41,0,.14-.01.27-.02.41"/>
  <path id="Caminho_594" class="st1" d="M28.42,40.84v.06s0-.06,0-.06"/>
  <path id="Caminho_595" class="st1" d="M28.34,40.32s.01.09.02.14c0-.05-.01-.09-.02-.14"/>
  <path id="Caminho_596" class="st1" d="M47.26,55.63l.23-.02-.23.02"/>
  <path id="Caminho_597" class="st1" d="M46.47,55.67h.15s-.15,0-.15,0"/>
  <path id="Caminho_598" class="st1" d="M46.87,55.65h.2s-.2,0-.2,0"/>
  <path id="Caminho_599" class="st1" d="M46.05,19.89v8.95c4.94,0,8.94,4.01,8.94,8.95s-4.01,8.94-8.95,8.94c-4.94,0-8.94-4.01-8.94-8.94h-8.94c0,.14,0,.28,0,.42v.14c0,.09,0,.19.01.28,0,.05,0,.11,0,.16,0,.09.01.17.02.26,0,.06,0,.11.01.17,0,.08.01.17.02.25,0,.06.01.11.02.17,0,.08.02.17.03.25,0,.05.01.11.02.16.01.09.02.18.04.27,0,.05.01.09.02.14.02.13.04.25.06.38v.06c.03.12.05.25.08.38.01.05.02.1.03.15.02.09.03.17.05.26.01.06.03.11.04.17.02.08.04.16.06.23.01.06.03.12.04.17.02.08.04.15.06.23.02.06.03.12.05.17.02.07.04.15.07.22.02.06.03.11.05.17.02.08.05.15.07.23.02.05.03.11.05.16.03.1.07.2.1.29.02.06.04.12.07.18.03.09.07.19.1.28.02.06.04.11.07.17.03.07.06.14.09.21s.05.12.07.18.06.13.08.2.05.12.08.18l.09.19c.03.06.06.12.09.18.03.06.06.12.09.18s.06.12.09.18.06.12.09.18.06.12.09.18.07.13.11.2c.06.1.11.2.17.3.04.06.07.13.11.19s.07.12.11.18.07.11.1.17.08.12.12.18l.11.16.12.18.11.16c.04.06.08.12.13.18l.11.15c.04.06.09.12.13.18s.08.1.11.15.09.12.14.18.07.09.11.14.09.12.14.17c-.05-.06-.09-.12-.14-.17.4.5.83.98,1.28,1.43l.06.06c.08.08.17.17.25.25l.07.07.1.09c2.99,2.82,6.87,4.51,10.97,4.79-2.87-.2-5.65-1.1-8.1-2.61,2.45,1.52,5.23,2.41,8.1,2.61h.01c.18.01.36.02.54.03h.13c.18.01.38.01.56.01h0c.14,0,.28,0,.41,0h.15s.26-.01.26-.01h.2s.2-.02.2-.02l.23-.02h.13c3.42-.31,6.69-1.6,9.39-3.72-2.71,2.12-5.97,3.41-9.39,3.71,8.75-.78,15.64-7.78,16.26-16.54-.2,2.85-1.09,5.61-2.59,8.04,1.5-2.43,2.39-5.19,2.59-8.04,0-.04,0-.09,0-.13,0-.13.02-.27.02-.41,0-.07,0-.15,0-.22,0-.13,0-.25,0-.38v-.15h8.95c.02-14.81-11.98-26.83-26.79-26.85-.01,0-.02,0-.04,0v8.95h0"/>
  <path id="Caminho_600" class="st1" d="M63.94,37.93c0,.13,0,.25,0,.38,0-.13,0-.25,0-.38"/>
  <path id="Caminho_601" class="st1" d="M28.17,38.2v.14-.14"/>
  <path id="Caminho_602" class="st1" d="M29.17,43.73c.02.06.04.12.07.18-.02-.06-.04-.12-.07-.18"/>
  <path id="Caminho_603" class="st1" d="M44.81,55.63c.18.01.36.02.54.03-.18,0-.36-.02-.54-.03"/>
  <path id="Caminho_604" class="st1" d="M28.21,39.04c0,.06,0,.11.01.17,0-.06,0-.11-.01-.17"/>
  <path id="Caminho_605" class="st1" d="M28.28,39.89c0,.05.01.11.02.16,0-.05-.01-.11-.02-.16"/>
  <path id="Caminho_606" class="st1" d="M28.24,39.46c0,.06.01.11.02.17,0-.06-.01-.11-.02-.17"/>
  <path id="Caminho_607" class="st1" d="M46.05,55.67c-.18,0-.38,0-.56-.01h.12c.15,0,.29,0,.44,0"/>
  <path id="Caminho_608" class="st1" d="M28.18,38.62c0,.05,0,.11,0,.16,0-.05,0-.11,0-.16"/>
  <path id="Caminho_609" class="st1" d="M30.39,46.44c.06.1.11.2.17.3-.06-.1-.12-.2-.17-.3"/>
  <path id="Caminho_610" class="st1" d="M29.02,43.28c.02.05.03.11.05.16-.02-.05-.03-.11-.05-.16"/>
  <path id="Caminho_611" class="st1" d="M28.68,42.08c.01.06.03.12.04.17-.01-.06-.03-.12-.04-.17"/>
  <path id="Caminho_612" class="st1" d="M30.67,46.93c.04.06.07.12.11.18-.04-.06-.07-.12-.11-.18"/>
  <path id="Caminho_613" class="st1" d="M29.49,44.58c.02.06.05.12.07.18-.02-.06-.05-.12-.07-.18"/>
  <path id="Caminho_614" class="st1" d="M28.78,42.48c.02.06.03.12.05.17-.02-.06-.03-.12-.05-.17"/>
  <path id="Caminho_615" class="st1" d="M30,45.69c.03.06.06.12.09.18-.03-.06-.06-.12-.09-.18"/>
  <path id="Caminho_616" class="st1" d="M28.89,42.88c.02.06.03.11.05.17-.02-.06-.03-.11-.05-.17"/>
  <path id="Caminho_617" class="st1" d="M29.65,44.95c.03.06.05.12.08.18-.03-.06-.05-.12-.08-.18"/>
  <path id="Caminho_618" class="st1" d="M30.18,46.06c.03.06.06.12.09.18-.03-.06-.06-.12-.09-.18"/>
  <path id="Caminho_619" class="st1" d="M31.11,47.62l.12.18-.12-.18"/>
  <path id="Caminho_620" class="st1" d="M31.82,48.62c.05.06.09.12.14.18-.05-.06-.09-.12-.14-.18"/>
  <path id="Caminho_621" class="st1" d="M28.58,41.67c.01.06.03.11.04.17-.01-.06-.03-.11-.04-.17"/>
  <path id="Caminho_622" class="st1" d="M31.57,48.3c.04.06.09.12.13.18-.04-.06-.09-.12-.13-.18"/>
  <path id="Caminho_623" class="st1" d="M29.34,44.2c.02.06.04.11.07.17-.02-.06-.04-.11-.07-.17"/>
  <path id="Caminho_624" class="st1" d="M30.88,47.28c.04.06.08.12.12.18-.04-.06-.08-.12-.12-.18"/>
  <path id="Caminho_625" class="st1" d="M28.5,41.27s.02.1.03.15c-.01-.05-.02-.1-.03-.15"/>
  <path id="Caminho_626" class="st1" d="M29.82,45.32c.03.06.06.12.09.18-.03-.06-.06-.12-.09-.18"/>
  <path id="Caminho_627" class="st1" d="M31.34,47.96l.13.18c-.04-.06-.08-.12-.13-.18"/>
  <path id="Caminho_628" class="st1" d="M29.24,43.91c.03.09.07.19.1.28-.04-.09-.07-.18-.1-.28"/>
  <path id="Caminho_629" class="st1" d="M29.07,43.44c.03.1.07.2.1.29-.03-.1-.07-.19-.1-.29"/>
  <path id="Caminho_630" class="st1" d="M30.28,46.24c.04.07.07.13.11.2-.04-.07-.07-.13-.11-.2"/>
  <path id="Caminho_631" class="st1" d="M31.96,48.8s.07.09.11.14c-.04-.05-.07-.09-.11-.14"/>
  <path id="Caminho_632" class="st1" d="M28.36,40.46c.02.13.04.25.06.38-.02-.13-.04-.25-.06-.38"/>
  <path id="Caminho_633" class="st1" d="M28.16,37.78c0,.14,0,.28,0,.42,0-.14,0-.28,0-.42"/>
  <path id="Caminho_634" class="st1" d="M33.65,50.68l.07.07-.07-.07"/>
  <path id="Caminho_635" class="st1" d="M28.43,40.9c.02.12.05.25.07.38-.02-.12-.05-.25-.07-.38"/>
  <path id="Caminho_636" class="st1" d="M30.56,46.74c.04.06.07.13.11.19-.04-.06-.07-.13-.11-.19"/>
  <path id="Caminho_637" class="st1" d="M29.6,44.83l-.03-.08c-.02-.06-.05-.12-.07-.18l-.02-.04c.04.1.08.2.12.3"/>
  <path id="Caminho_638" class="st1" d="M29.48,44.54l.02.04c-.03-.07-.06-.14-.09-.21.02.05.04.09.06.14v.04"/>
  <path id="Caminho_639" class="st1" d="M28.66,42.02v.05c0-.08-.02-.16-.04-.23l.02.09.02.09"/>
  <path id="Caminho_640" class="st1" d="M28.64,41.94s-.01-.06-.02-.09c-.01-.06-.03-.11-.04-.17v-.04c.01.1.04.2.06.31"/>
  <path id="Caminho_641" class="st1" d="M28.76,42.41l.02.07c-.02-.07-.04-.15-.06-.23l.02.07.02.09"/>
  <path id="Caminho_642" class="st1" d="M28.57,41.63v.04c0-.09-.03-.17-.04-.26.01.05.02.11.03.16v.05"/>
  <path id="Caminho_643" class="st1" d="M28.97,43.13s.03.1.05.15c-.02-.08-.05-.15-.07-.23v.04s.03.04.03.04"/>
  <path id="Caminho_644" class="st1" d="M28.84,42.7v-.05c-.03-.06-.05-.12-.06-.17l-.02-.07c.03.1.05.2.08.29"/>
  <path id="Caminho_645" class="st1" d="M28.56,41.58c-.01-.05-.02-.11-.03-.16s-.02-.1-.03-.15c-.02-.12-.05-.25-.07-.38v-.06c-.03-.13-.05-.25-.07-.38,0-.05-.01-.09-.02-.14s-.02-.11-.02-.16c.06.48.14.96.25,1.43"/>
  <path id="Caminho_646" class="st1" d="M29.46,44.5s-.04-.09-.06-.14-.04-.11-.07-.17c-.04-.09-.07-.18-.1-.28-.02-.06-.04-.12-.07-.18-.03-.1-.07-.19-.1-.29-.02-.05-.03-.11-.05-.16s-.03-.1-.05-.15c.14.46.31.92.49,1.37"/>
  <path id="Caminho_647" class="st1" d="M28.96,43.09v-.04c-.03-.06-.05-.11-.06-.17l-.03-.09c.03.1.06.2.09.3"/>
  <path id="Caminho_648" class="st1" d="M28.87,42.78l.03.09c-.02-.07-.04-.15-.07-.22v.05s.04.08.04.08"/>
  <path id="Caminho_649" class="st1" d="M28.74,42.32s-.01-.04-.02-.07c-.01-.06-.03-.12-.04-.17v-.05c.01.1.04.2.06.29"/>
  <path id="Caminho_650" class="st1" d="M28.2,38.99v.06c0-.09-.01-.17-.02-.26,0,.03,0,.07,0,.1s0,.07,0,.1"/>
  <path id="Caminho_651" class="st1" d="M28.2,38.89s0-.07,0-.1c0-.05,0-.11,0-.16v-.05c0,.1.01.21.02.31"/>
  <path id="Caminho_652" class="st1" d="M28.17,38.34v-.14c0-.14,0-.28,0-.42h0c0,.24,0,.49.02.73,0-.06,0-.11,0-.17"/>
  <path id="Caminho_653" class="st1" d="M28.18,38.58v.05c0-.09,0-.19-.01-.28,0,.06,0,.11,0,.17v.07"/>
  <path id="Caminho_654" class="st1" d="M28.32,40.15c0,.06.02.11.02.16-.01-.09-.02-.18-.04-.27,0,.01,0,.03,0,.05s0,.04,0,.06"/>
  <path id="Caminho_655" class="st1" d="M28.22,39.28s0-.05,0-.07c0-.06,0-.11-.01-.17v-.06c0,.1.01.2.02.3"/>
  <path id="Caminho_656" class="st1" d="M28.23,39.39s0,.05,0,.07c0-.08-.02-.17-.02-.25,0,.02,0,.05,0,.07s0,.07,0,.11"/>
  <path id="Caminho_657" class="st1" d="M28.31,40.09s0-.03,0-.05c0-.05-.01-.11-.02-.16,0-.03,0-.07-.01-.1.01.1.02.21.04.31"/>
  <path id="Caminho_658" class="st1" d="M28.27,39.79s0,.07.01.1c0-.08-.02-.17-.03-.25,0,.02,0,.04,0,.06,0,.03,0,.07.01.1"/>
  <path id="Caminho_659" class="st1" d="M28.26,39.69s0-.04,0-.06c0-.06-.01-.11-.02-.17,0-.02,0-.05,0-.07,0,.1.02.2.03.3"/>
  <path id="Caminho_660" class="st1" d="M30.84,47.2l-.06-.09c-.04-.06-.07-.12-.11-.18s-.07-.13-.11-.19c-.06-.1-.12-.2-.17-.3-.04-.07-.07-.13-.11-.2s-.06-.12-.09-.18c-.02-.04-.04-.08-.06-.12.22.43.46.85.71,1.26"/>
  <path id="Caminho_661" class="st1" d="M31.72,48.49v-.02c-.06-.06-.1-.12-.14-.18l-.03-.04c.06.08.12.16.17.24"/>
  <path id="Caminho_662" class="st1" d="M31.54,48.26l.03.04-.11-.15.02.02.07.09"/>
  <path id="Caminho_663" class="st1" d="M31.48,48.17l-.02-.02-.13-.18-.02-.03c.05.08.11.16.17.24"/>
  <path id="Caminho_664" class="st1" d="M31.77,48.56l.05.06s-.08-.1-.11-.15v.02s.07.07.07.07"/>
  <path id="Caminho_665" class="st1" d="M31.32,47.93l.02.03-.11-.16.02.03.06.09"/>
  <path id="Caminho_666" class="st1" d="M44.81,55.63h0"/>
  <path id="Caminho_667" class="st1" d="M45.48,55.66h-.13s.13,0,.13,0"/>
  <path id="Caminho_668" class="st1" d="M29.63,44.91l.02.04c-.03-.07-.06-.13-.08-.2l.03.08.03.07"/>
  <path id="Caminho_669" class="st1" d="M33.34,50.37c-.45-.45-.88-.93-1.28-1.43-.04-.05-.07-.09-.11-.14s-.09-.12-.14-.18l-.05-.06c.48.64,1.01,1.24,1.57,1.81"/>
  <path id="Caminho_670" class="st1" d="M44.8,55.63c-4.1-.28-7.98-1.97-10.97-4.79,2.99,2.82,6.87,4.51,10.97,4.79h0"/>
  <path id="Caminho_671" class="st1" d="M31.25,47.84l-.02-.03-.12-.18-.02-.03c.05.08.11.16.16.24"/>
  <path id="Caminho_672" class="st1" d="M45.35,55.66h0c-.18,0-.36-.02-.54-.03h0c.18.01.37.02.55.03"/>
  <path id="Caminho_673" class="st1" d="M29.96,45.62l.04.07-.09-.18.02.04.04.07"/>
  <path id="Caminho_674" class="st1" d="M29.93,45.55l-.02-.04c-.03-.06-.06-.12-.09-.18l-.03-.05c.04.09.09.18.13.28"/>
  <path id="Caminho_675" class="st1" d="M29.8,45.27l.03.05c-.03-.06-.06-.12-.09-.19l.02.06.04.08"/>
  <path id="Caminho_676" class="st1" d="M29.75,45.19l-.02-.06c-.03-.06-.05-.12-.08-.18l-.02-.04c.04.09.08.19.13.28"/>
  <path id="Caminho_677" class="st1" d="M30.1,45.9l-.02-.03c-.03-.06-.06-.12-.09-.18l-.04-.07c.05.1.09.19.14.29"/>
  <path id="Caminho_678" class="st1" d="M30.12,45.95l.06.12c-.03-.06-.06-.12-.09-.18l.02.03.02.04"/>
  <path id="Caminho_679" class="st1" d="M31.09,47.6l.02.03-.11-.16.03.05.05.08"/>
  <path id="Caminho_680" class="st1" d="M31.03,47.51l-.03-.05c-.04-.06-.08-.12-.12-.18l-.02-.02c.05.09.11.17.17.26"/>
  <path id="Caminho_681" class="st1" d="M30.87,47.25l.02.02c-.03-.06-.07-.11-.1-.17l.06.09.03.05"/>
  <path id="Caminho_682" class="st1" d="M45.6,55.67h-.12.12"/>
  <path id="Caminho_684" class="st1" d="M28.16,37.78h0Z"/>
  <path id="Caminho_685" class="st4" d="M118.25,23.69c-3.89-.12-7.66,1.34-10.45,4.06-5.5,5.47-5.52,14.37-.05,19.87.02.02.03.03.05.05,5.93,5.41,15.01,5.41,20.95,0,5.5-5.47,5.52-14.37.05-19.87-.02-.02-.03-.03-.05-.05-2.8-2.72-6.59-4.19-10.5-4.06M124.14,43.4c-1.56,1.56-3.69,2.4-5.89,2.33-4.37.14-8.03-3.28-8.17-7.65,0-.14,0-.28,0-.42-.05-2.12.79-4.17,2.3-5.66,1.56-1.54,3.68-2.38,5.87-2.3,2.2-.07,4.33.76,5.89,2.3,1.53,1.48,2.37,3.53,2.33,5.66.05,2.15-.79,4.23-2.33,5.74"/>
  <path id="Caminho_686" class="st4" d="M162.88,41.54h-4.34c-.25,0-.5.06-.72.18-.21.12-.39.29-.52.49-.66,1.08-1.6,1.96-2.72,2.56-1.22.65-2.58.98-3.96.96-4.43-.05-7.98-3.68-7.93-8.11s3.68-7.98,8.11-7.93c1.33.01,2.64.36,3.8,1.01,1.12.62,2.06,1.52,2.74,2.61.12.22.3.41.52.54.22.13.47.19.72.18h4.29c.31.03.62-.1.83-.34.17-.25.19-.58.05-.85-.8-2.74-2.53-5.11-4.89-6.7-5.86-3.8-13.55-3.14-18.67,1.6-5.48,5.51-5.48,14.41,0,19.91,2.77,2.72,6.54,4.18,10.42,4.05,2.94.05,5.83-.8,8.28-2.43,2.37-1.56,4.11-3.9,4.91-6.62.12-.28.07-.6-.13-.83-.21-.22-.5-.33-.8-.31"/>
  <path id="Caminho_687" class="st4" d="M188.75,24.42h-4.71c-.27-.01-.53.07-.75.23-.2.17-.33.39-.39.64l-4.76,20.07h-.52l-4.76-20.07c-.06-.25-.19-.48-.39-.64-.21-.16-.48-.25-.75-.23h-4.66c-.29-.02-.58.09-.78.31-.18.24-.22.55-.1.83l6.31,24.21c.05.25.19.48.39.64.21.16.48.25.75.23h3.52l-2.43,9.52c-.08.28-.03.58.13.83.18.22.46.34.75.31h3.88c.27.01.54-.07.75-.23.2-.17.33-.39.39-.64l9-34.86c.08-.28.03-.58-.13-.83-.18-.22-.46-.34-.75-.31"/>
  <path id="Caminho_688" class="st4" d="M218.49,24.42h-3.47c-.52-.08-1,.28-1.08.79,0,.06-.01.13,0,.19l-.36,2.84c-2.27-2.92-5.77-4.6-9.47-4.55-3.48-.08-6.8,1.41-9.05,4.06-4.76,5.79-4.76,14.13,0,19.91,2.25,2.65,5.58,4.14,9.05,4.06,3.69.05,7.2-1.63,9.47-4.55l.36,2.79c0,.28.12.55.31.75.22.17.5.25.78.23h3.47c.5.07.96-.27,1.03-.77.01-.09.01-.18,0-.26v-24.47c.07-.5-.27-.96-.77-1.03-.09-.01-.17-.01-.26,0M211.12,43.4c-2.82,2.99-7.53,3.12-10.52.29-.1-.1-.2-.19-.29-.29-1.44-1.56-2.21-3.62-2.15-5.74-.06-2.1.72-4.13,2.15-5.66,2.87-2.99,7.61-3.08,10.6-.21.07.07.14.14.21.21,1.43,1.53,2.2,3.57,2.15,5.66.06,2.12-.71,4.18-2.15,5.74"/>
  <path id="Caminho_689" class="st4" d="M247.09,26.51c-1.73-1.63-4.04-2.51-6.41-2.46h-1.24c-1.75-.03-3.49.32-5.09,1.04-1.5.69-2.77,1.81-3.65,3.21l-.52-2.74c-.04-.33-.2-.63-.44-.85-.26-.2-.58-.3-.91-.28h-2.79c-.5-.07-.96.27-1.03.77-.01.09-.01.17,0,.26v24.47c-.07.5.28.96.78,1.04.09.01.17.01.26,0h4.61c.5.07.96-.28,1.04-.78.01-.09.01-.17,0-.26v-14.02c0-2.21.58-3.72,1.73-4.55,1.02-.78,2.26-1.22,3.54-1.24h1.5c1.24-.06,2.44.41,3.31,1.29.9,1.08,1.35,2.47,1.24,3.88v14.64c-.07.5.28.96.78,1.03.09.01.17.01.26,0h4.66c.5.07.96-.28,1.04-.78.01-.09.01-.17,0-.26v-15.98c0-3.31-.88-5.78-2.64-7.42"/>
</svg>