<?xml version="1.0" encoding="UTF-8"?>
<svg id="Layer_1" xmlns="http://www.w3.org/2000/svg" version="1.1" viewBox="0 0 163.84 54">
  <!-- Generator: Adobe Illustrator 30.0.0, SVG Export Plug-In . SVG Version: 2.1.1 Build 123)  -->
  <defs>
    <style>
      .st0, .st1 {
        fill: #001c43;
      }

      .st2 {
        fill: #00bedd;
      }

      .st1 {
        fill-rule: evenodd;
      }
    </style>
  </defs>
  <path class="st2" d="M54.86,14.25c-1.56,0-3.05.61-4.15,1.71-1.1,1.09-1.72,2.58-1.72,4.12v5.83h-2.34v11.66h5.87c1.56,0,3.05-.61,4.15-1.71,1.1-1.09,1.72-2.58,1.72-4.12v-5.83h2.35v-11.66h-5.87Z"/>
  <path class="st0" d="M40.78,14.25c-1.56,0-3.05.61-4.15,1.71-1.1,1.09-1.72,2.58-1.72,4.12v5.83h-2.34v-11.66h-5.87c-1.56,0-3.05.61-4.15,1.71-1.1,1.09-1.72,2.58-1.72,4.12v5.83h-2.34v-11.66h-5.87c-.77,0-1.53.15-2.25.44-.71.29-1.36.72-1.9,1.26-.54.54-.98,1.18-1.27,1.89-.29.71-.45,1.47-.45,2.23v5.83h7.04v11.66h5.86c1.56,0,3.05-.61,4.15-1.71,1.1-1.09,1.72-2.58,1.72-4.12v-5.83h2.34v11.66h5.87c1.56,0,3.05-.61,4.15-1.71,1.1-1.09,1.72-2.58,1.72-4.12v-5.83h7.04v-11.66h-5.87Z"/>
  <path class="st1" d="M91.44,36.03v-10.81c-1.16.25-2.58.5-3.35.62v.52c1.14.09,1.17.11,1.17,1.15v8.52c0,1.01-.09,1.1-1.23,1.21v.57h4.64v-.57c-1.14-.11-1.23-.2-1.23-1.21h0ZM85.71,27.91c-.24.24-.57.38-.91.38s-.67-.14-.91-.38c-.24-.24-.38-.57-.38-.91s.14-.67.38-.91c.24-.24.57-.38.91-.38s.67.14.91.38c.24.24.38.57.38.91s-.14.67-.38.91ZM86.03,29.79v6.24h0c0,1.01.09,1.1,1.23,1.21v.57h-4.64v-.57c1.14-.11,1.23-.19,1.23-1.21v-3.9c0-1.08-.04-1.1-1.18-1.22v-.48c1.05-.14,2.23-.39,3.35-.64ZM102.7,33.39c0,2.23.71,3.88,1.85,3.88.65,0,1.44-.44,1.44-3.01,0-2.36-.68-3.72-1.82-3.72-.73,0-1.48.94-1.48,2.85ZM100.25,34.1c0-2.8,2.21-4.31,4.21-4.31,2.47,0,4.01,1.88,4.01,3.93,0,2.89-2.05,4.29-4.1,4.29-2.74,0-4.12-2.02-4.12-3.92ZM116.91,36.05v-3.88c0-1.37-.88-2.37-2.3-2.37-.62,0-1.01.2-1.63.59-.31.21-.66.45-.99.67v-1.26c-1.16.25-2.31.5-3.32.62v.48c1.1.12,1.13.14,1.13,1.21v3.95c0,1.01-.09,1.08-1.28,1.19v.57h4.32v-.57c-.77-.1-.86-.17-.86-1.19v-4.25c.49-.43,1.05-.66,1.52-.66.69,0,1.22.41,1.22,1.45v3.46c0,1.01-.07,1.08-.97,1.19v.57h4.21v-.57c-.97-.1-1.06-.18-1.06-1.19ZM135.43,33.39c0,2.23.71,3.88,1.86,3.88.64,0,1.45-.44,1.45-3.01,0-2.36-.68-3.72-1.82-3.72-.73,0-1.48.94-1.48,2.85ZM132.98,34.1c0-2.8,2.21-4.31,4.21-4.31,2.47,0,4.01,1.88,4.01,3.93,0,2.89-2.05,4.29-4.1,4.29-2.75,0-4.12-2.02-4.12-3.92ZM149.76,36.05v-3.88c0-1.37-.87-2.37-2.3-2.37-.62,0-1.02.2-1.62.59-.26.17-.54.36-.81.55h0s-.19.13-.19.13v-1.26h-.05c-1.14.26-2.26.5-3.26.62v.48c1.1.12,1.14.14,1.14,1.2v3.95c0,1.01-.09,1.08-1.28,1.19v.57h4.32v-.57c-.76-.1-.86-.17-.86-1.19v-4.25c.5-.43,1.05-.66,1.52-.66.7,0,1.23.41,1.23,1.45v3.46c0,1.01-.07,1.08-.97,1.19v.57h4.2v-.57c-.98-.1-1.07-.18-1.07-1.19h0ZM153.29,31.55c0,.51.5.96,1.34,1.26h0c1.41.5,2.46,1.17,2.46,2.59,0,1.81-1.83,2.74-3.34,2.57-.22-.02-.48-.11-.72-.19-.3-.1-.6-.2-.82-.18-.24.02-.42.38-.42.38l-.35-.02-.12-2.74h.36c.34,1.09,1.36,2.05,2.34,2.05.15,0,.3-.02.44-.07.14-.05.26-.14.37-.24.11-.1.19-.23.24-.37.05-.14.08-.29.07-.43,0-.55-.39-1.06-1.36-1.44-.77-.3-2.3-.96-2.3-2.37s.99-2.66,2.9-2.44c.26.03.56.15.81.25.18.07.34.13.41.13.35,0,.6-.41.6-.41h.33l.12,2.39h-.4c-.57-1.23-1.38-1.73-1.93-1.73-.13,0-.27.02-.39.07-.13.05-.24.12-.34.22-.1.09-.17.21-.23.33-.05.12-.08.26-.08.39ZM96.84,32.8c-.83-.3-1.34-.74-1.34-1.26,0-.13.03-.27.08-.39s.13-.24.23-.33c.1-.09.21-.17.34-.22.13-.05.26-.07.39-.07.55,0,1.36.5,1.93,1.74h.4s-.12-2.4-.12-2.4h-.34s-.25.41-.59.41c-.08,0-.24-.06-.43-.14-.24-.1-.54-.21-.79-.25-1.91-.22-2.9,1.08-2.9,2.44s1.54,2.07,2.3,2.37c.96.37,1.36.89,1.36,1.44,0,.15-.02.3-.08.43-.06.14-.14.26-.25.37-.11.1-.23.19-.37.24-.14.05-.29.08-.44.07-.98,0-2-.96-2.33-2.04h-.36s.12,2.73.12,2.73l.34.02s.18-.37.42-.38c.22-.02.51.08.81.18.25.08.51.17.73.19,1.51.17,3.34-.76,3.34-2.57,0-1.42-1.05-2.09-2.46-2.59h0ZM119.86,35.47c.14-.06.28-.09.43-.08h0c.18,0,.36.04.53.12.17.08.32.19.44.32.26.29.39.69.39,1.19,0,.6-.19,1.19-.56,1.66-.38.48-.95.84-1.69,1.06v-.29c.51-.22.88-.5,1.12-.84.21-.31.33-.68.34-1.06,0-.06-.01-.12-.05-.17-.01-.01-.02-.03-.04-.04-.02,0-.03-.02-.05-.02-.04,0-.08.02-.12.05-.15.08-.31.11-.48.11-.13,0-.25-.03-.37-.08-.12-.05-.22-.13-.3-.22-.18-.19-.28-.45-.28-.71,0-.14.03-.28.08-.41.05-.13.13-.25.24-.35.1-.11.23-.19.36-.25ZM127.87,38.07c2.61.2,4.23-1.59,4.23-3.69,0-1.91-1.32-2.85-2.75-3.45l-.57-.25c-1.28-.55-1.94-1.19-1.94-2.09,0-.99.64-1.77,1.72-1.77,1.33,0,2.3,1.33,2.39,2.76h.66v-3.56h-.6s-.02.79-.38.79c-.1,0-.24-.07-.44-.18-.36-.18-.9-.45-1.59-.51-2.46-.21-3.72,1.47-3.72,3.37,0,1.68,1.27,2.71,2.77,3.37l.36.16c1.35.59,2.01,1.17,2.01,2.37,0,1.01-.66,1.88-1.83,1.88-1.33,0-2.64-.99-2.81-2.79h-.65v3.56h.53s.08-.79.43-.79c.1,0,.27.1.5.22.41.23,1,.55,1.68.6h0ZM78.38,26.72v-.57h4.35v.61c-1,.13-1.21.31-1.8,1.86-.22.55-1.53,4.29-3.16,9.18h-1.03l-3.25-7.94h-.04l-2.87,7.94h-1.03l-3.23-9.31c-.54-1.58-.89-1.66-1.9-1.77v-.57h5.58v.57l-.7.07c-.73.09-.81.24-.54,1.12l2.11,6.52h.04l1.99-5.82-.02-.11c-.54-1.58-.89-1.66-1.9-1.77v-.57h5.57v.57l-.7.07c-.73.09-.81.23-.55,1.1l2.66,6.54h.04c.72-2.25,1.51-5.19,1.78-6.26.29-1.12.19-1.31-.66-1.38l-.76-.07Z"/>
</svg>